<svg width="152" height="227" viewBox="0 0 152 227" fill="none" xmlns="http://www.w3.org/2000/svg">
<g filter="url(#filter0_d_164_6)">
<rect x="4.5" y="0.5" width="142.983" height="217.322" fill="black" stroke="black"/>
<mask id="path-2-outside-1_164_6" maskUnits="userSpaceOnUse" x="18.2441" y="87.649" width="112" height="17" fill="black">
<rect fill="white" x="18.2441" y="87.649" width="112" height="17"/>
<path d="M26.9941 99.649H25.7201L20.5961 91.879V99.649H19.3221V89.877H20.5961L25.7201 97.633V89.877H26.9941V99.649ZM32.5119 99.775C31.7932 99.775 31.1399 99.6117 30.5519 99.285C29.9732 98.9584 29.5159 98.4964 29.1799 97.899C28.8532 97.2924 28.6899 96.5924 28.6899 95.799C28.6899 95.015 28.8579 94.3244 29.1939 93.727C29.5392 93.1204 30.0059 92.6584 30.5939 92.341C31.1819 92.0144 31.8399 91.851 32.5679 91.851C33.2959 91.851 33.9539 92.0144 34.5419 92.341C35.1299 92.6584 35.5919 93.1157 35.9279 93.713C36.2732 94.3104 36.4459 95.0057 36.4459 95.799C36.4459 96.5924 36.2686 97.2924 35.9139 97.899C35.5686 98.4964 35.0972 98.9584 34.4999 99.285C33.9026 99.6117 33.2399 99.775 32.5119 99.775ZM32.5119 98.655C32.9692 98.655 33.3986 98.5477 33.7999 98.333C34.2012 98.1184 34.5232 97.7964 34.7659 97.367C35.0179 96.9377 35.1439 96.415 35.1439 95.799C35.1439 95.183 35.0226 94.6604 34.7799 94.231C34.5372 93.8017 34.2199 93.4844 33.8279 93.279C33.4359 93.0644 33.0112 92.957 32.5539 92.957C32.0872 92.957 31.6579 93.0644 31.2659 93.279C30.8832 93.4844 30.5752 93.8017 30.3419 94.231C30.1086 94.6604 29.9919 95.183 29.9919 95.799C29.9919 96.4244 30.1039 96.9517 30.3279 97.381C30.5612 97.8104 30.8692 98.1324 31.2519 98.347C31.6346 98.5524 32.0546 98.655 32.5119 98.655ZM43.1274 93.391C43.3794 92.9524 43.7527 92.5884 44.2474 92.299C44.7514 92.0004 45.3347 91.851 45.9974 91.851C46.6787 91.851 47.2947 92.0144 47.8454 92.341C48.4054 92.6677 48.8441 93.1297 49.1614 93.727C49.4787 94.315 49.6374 95.001 49.6374 95.785C49.6374 96.5597 49.4787 97.2504 49.1614 97.857C48.8441 98.4637 48.4054 98.935 47.8454 99.271C47.2947 99.607 46.6787 99.775 45.9974 99.775C45.3441 99.775 44.7654 99.6304 44.2614 99.341C43.7667 99.0424 43.3887 98.6737 43.1274 98.235V103.289H41.8534V91.977H43.1274V93.391ZM48.3354 95.785C48.3354 95.2064 48.2187 94.7024 47.9854 94.273C47.7521 93.8437 47.4347 93.517 47.0334 93.293C46.6414 93.069 46.2074 92.957 45.7314 92.957C45.2647 92.957 44.8307 93.0737 44.4294 93.307C44.0374 93.531 43.7201 93.8624 43.4774 94.301C43.2441 94.7304 43.1274 95.2297 43.1274 95.799C43.1274 96.3777 43.2441 96.8864 43.4774 97.325C43.7201 97.7544 44.0374 98.0857 44.4294 98.319C44.8307 98.543 45.2647 98.655 45.7314 98.655C46.2074 98.655 46.6414 98.543 47.0334 98.319C47.4347 98.0857 47.7521 97.7544 47.9854 97.325C48.2187 96.8864 48.3354 96.373 48.3354 95.785ZM54.6603 99.775C53.9417 99.775 53.2883 99.6117 52.7003 99.285C52.1217 98.9584 51.6643 98.4964 51.3283 97.899C51.0017 97.2924 50.8383 96.5924 50.8383 95.799C50.8383 95.015 51.0063 94.3244 51.3423 93.727C51.6877 93.1204 52.1543 92.6584 52.7423 92.341C53.3303 92.0144 53.9883 91.851 54.7163 91.851C55.4443 91.851 56.1023 92.0144 56.6903 92.341C57.2783 92.6584 57.7403 93.1157 58.0763 93.713C58.4217 94.3104 58.5943 95.0057 58.5943 95.799C58.5943 96.5924 58.417 97.2924 58.0623 97.899C57.717 98.4964 57.2457 98.9584 56.6483 99.285C56.051 99.6117 55.3883 99.775 54.6603 99.775ZM54.6603 98.655C55.1177 98.655 55.547 98.5477 55.9483 98.333C56.3497 98.1184 56.6717 97.7964 56.9143 97.367C57.1663 96.9377 57.2923 96.415 57.2923 95.799C57.2923 95.183 57.171 94.6604 56.9283 94.231C56.6857 93.8017 56.3683 93.4844 55.9763 93.279C55.5843 93.0644 55.1597 92.957 54.7023 92.957C54.2357 92.957 53.8063 93.0644 53.4143 93.279C53.0317 93.4844 52.7237 93.8017 52.4903 94.231C52.257 94.6604 52.1403 95.183 52.1403 95.799C52.1403 96.4244 52.2523 96.9517 52.4763 97.381C52.7097 97.8104 53.0177 98.1324 53.4003 98.347C53.783 98.5524 54.203 98.655 54.6603 98.655ZM62.9854 99.775C62.3974 99.775 61.8701 99.677 61.4034 99.481C60.9367 99.2757 60.5681 98.9957 60.2974 98.641C60.0267 98.277 59.8774 97.8617 59.8494 97.395H61.1654C61.2027 97.7777 61.3801 98.0904 61.6974 98.333C62.0241 98.5757 62.4487 98.697 62.9714 98.697C63.4567 98.697 63.8394 98.5897 64.1194 98.375C64.3994 98.1604 64.5394 97.8897 64.5394 97.563C64.5394 97.227 64.3901 96.9797 64.0914 96.821C63.7927 96.653 63.3307 96.4897 62.7054 96.331C62.1361 96.1817 61.6694 96.0324 61.3054 95.883C60.9507 95.7244 60.6427 95.4957 60.3814 95.197C60.1294 94.889 60.0034 94.4877 60.0034 93.993C60.0034 93.601 60.1201 93.2417 60.3534 92.915C60.5867 92.5884 60.9181 92.3317 61.3474 92.145C61.7767 91.949 62.2667 91.851 62.8174 91.851C63.6667 91.851 64.3527 92.0657 64.8754 92.495C65.3981 92.9244 65.6781 93.5124 65.7154 94.259H64.4414C64.4134 93.8577 64.2501 93.5357 63.9514 93.293C63.6621 93.0504 63.2701 92.929 62.7754 92.929C62.3181 92.929 61.9541 93.027 61.6834 93.223C61.4127 93.419 61.2774 93.6757 61.2774 93.993C61.2774 94.245 61.3567 94.455 61.5154 94.623C61.6834 94.7817 61.8887 94.9124 62.1314 95.015C62.3834 95.1084 62.7287 95.2157 63.1674 95.337C63.7181 95.4864 64.1661 95.6357 64.5114 95.785C64.8567 95.925 65.1507 96.1397 65.3934 96.429C65.6454 96.7184 65.7761 97.0964 65.7854 97.563C65.7854 97.983 65.6687 98.361 65.4354 98.697C65.2021 99.033 64.8707 99.299 64.4414 99.495C64.0214 99.6817 63.5361 99.775 62.9854 99.775ZM69.1379 93.027V97.549C69.1379 97.9224 69.2172 98.1884 69.3759 98.347C69.5345 98.4964 69.8099 98.571 70.2019 98.571H71.1399V99.649H69.9919C69.2825 99.649 68.7505 99.4857 68.3959 99.159C68.0412 98.8324 67.8639 98.2957 67.8639 97.549V93.027H66.8699V91.977H67.8639V90.045H69.1379V91.977H71.1399V93.027H69.1379ZM79.6835 95.519C79.6835 95.7617 79.6695 96.0184 79.6415 96.289H73.5095C73.5561 97.045 73.8128 97.6377 74.2795 98.067C74.7555 98.487 75.3295 98.697 76.0015 98.697C76.5521 98.697 77.0095 98.571 77.3735 98.319C77.7468 98.0577 78.0081 97.7124 78.1575 97.283H79.5295C79.3241 98.0204 78.9135 98.6224 78.2975 99.089C77.6815 99.5464 76.9161 99.775 76.0015 99.775C75.2735 99.775 74.6201 99.6117 74.0415 99.285C73.4721 98.9584 73.0241 98.4964 72.6975 97.899C72.3708 97.2924 72.2075 96.5924 72.2075 95.799C72.2075 95.0057 72.3661 94.3104 72.6835 93.713C73.0008 93.1157 73.4441 92.6584 74.0135 92.341C74.5921 92.0144 75.2548 91.851 76.0015 91.851C76.7295 91.851 77.3735 92.0097 77.9335 92.327C78.4935 92.6444 78.9228 93.083 79.2215 93.643C79.5295 94.1937 79.6835 94.819 79.6835 95.519ZM78.3675 95.253C78.3675 94.7677 78.2601 94.3524 78.0455 94.007C77.8308 93.6524 77.5368 93.3864 77.1635 93.209C76.7995 93.0224 76.3935 92.929 75.9455 92.929C75.3015 92.929 74.7508 93.1344 74.2935 93.545C73.8455 93.9557 73.5888 94.525 73.5235 95.253H78.3675ZM82.6391 93.223C82.8631 92.7844 83.1804 92.4437 83.5911 92.201C84.0111 91.9584 84.5198 91.837 85.1171 91.837V93.153H84.7811C83.3531 93.153 82.6391 93.9277 82.6391 95.477V99.649H81.3651V91.977H82.6391V93.223ZM93.4422 93.027H91.8322V99.649H90.5582V93.027H89.5642V91.977H90.5582V91.431C90.5582 90.5724 90.7775 89.947 91.2162 89.555C91.6642 89.1537 92.3782 88.953 93.3582 88.953V90.017C92.7982 90.017 92.4015 90.129 92.1682 90.353C91.9442 90.5677 91.8322 90.927 91.8322 91.431V91.977H93.4422V93.027ZM98.2736 99.775C97.5549 99.775 96.9016 99.6117 96.3136 99.285C95.7349 98.9584 95.2776 98.4964 94.9416 97.899C94.6149 97.2924 94.4516 96.5924 94.4516 95.799C94.4516 95.015 94.6196 94.3244 94.9556 93.727C95.3009 93.1204 95.7676 92.6584 96.3556 92.341C96.9436 92.0144 97.6016 91.851 98.3296 91.851C99.0576 91.851 99.7156 92.0144 100.304 92.341C100.892 92.6584 101.354 93.1157 101.69 93.713C102.035 94.3104 102.208 95.0057 102.208 95.799C102.208 96.5924 102.03 97.2924 101.676 97.899C101.33 98.4964 100.859 98.9584 100.262 99.285C99.6643 99.6117 99.0016 99.775 98.2736 99.775ZM98.2736 98.655C98.7309 98.655 99.1603 98.5477 99.5616 98.333C99.9629 98.1184 100.285 97.7964 100.528 97.367C100.78 96.9377 100.906 96.415 100.906 95.799C100.906 95.183 100.784 94.6604 100.542 94.231C100.299 93.8017 99.9816 93.4844 99.5896 93.279C99.1976 93.0644 98.7729 92.957 98.3156 92.957C97.8489 92.957 97.4196 93.0644 97.0276 93.279C96.6449 93.4844 96.3369 93.8017 96.1036 94.231C95.8703 94.6604 95.7536 95.183 95.7536 95.799C95.7536 96.4244 95.8656 96.9517 96.0896 97.381C96.3229 97.8104 96.6309 98.1324 97.0136 98.347C97.3963 98.5524 97.8163 98.655 98.2736 98.655ZM110.687 91.977V99.649H109.413V98.515C109.17 98.907 108.829 99.215 108.391 99.439C107.961 99.6537 107.485 99.761 106.963 99.761C106.365 99.761 105.829 99.6397 105.353 99.397C104.877 99.145 104.499 98.7717 104.219 98.277C103.948 97.7824 103.813 97.1804 103.813 96.471V91.977H105.073V96.303C105.073 97.059 105.264 97.6424 105.647 98.053C106.029 98.4544 106.552 98.655 107.215 98.655C107.896 98.655 108.433 98.445 108.825 98.025C109.217 97.605 109.413 96.9937 109.413 96.191V91.977H110.687ZM116.576 91.837C117.509 91.837 118.265 92.1217 118.844 92.691C119.422 93.251 119.712 94.063 119.712 95.127V99.649H118.452V95.309C118.452 94.5437 118.26 93.9604 117.878 93.559C117.495 93.1484 116.972 92.943 116.31 92.943C115.638 92.943 115.101 93.153 114.7 93.573C114.308 93.993 114.112 94.6044 114.112 95.407V99.649H112.838V91.977H114.112V93.069C114.364 92.677 114.704 92.3737 115.134 92.159C115.572 91.9444 116.053 91.837 116.576 91.837ZM121.317 95.785C121.317 95.001 121.476 94.315 121.793 93.727C122.11 93.1297 122.544 92.6677 123.095 92.341C123.655 92.0144 124.28 91.851 124.971 91.851C125.568 91.851 126.124 91.991 126.637 92.271C127.15 92.5417 127.542 92.901 127.813 93.349V89.289H129.101V99.649H127.813V98.207C127.561 98.6644 127.188 99.0424 126.693 99.341C126.198 99.6304 125.62 99.775 124.957 99.775C124.276 99.775 123.655 99.607 123.095 99.271C122.544 98.935 122.11 98.4637 121.793 97.857C121.476 97.2504 121.317 96.5597 121.317 95.785ZM127.813 95.799C127.813 95.2204 127.696 94.7164 127.463 94.287C127.23 93.8577 126.912 93.531 126.511 93.307C126.119 93.0737 125.685 92.957 125.209 92.957C124.733 92.957 124.299 93.069 123.907 93.293C123.515 93.517 123.202 93.8437 122.969 94.273C122.736 94.7024 122.619 95.2064 122.619 95.785C122.619 96.373 122.736 96.8864 122.969 97.325C123.202 97.7544 123.515 98.0857 123.907 98.319C124.299 98.543 124.733 98.655 125.209 98.655C125.685 98.655 126.119 98.543 126.511 98.319C126.912 98.0857 127.23 97.7544 127.463 97.325C127.696 96.8864 127.813 96.3777 127.813 95.799Z"/>
</mask>
<path d="M26.9941 99.649H25.7201L20.5961 91.879V99.649H19.3221V89.877H20.5961L25.7201 97.633V89.877H26.9941V99.649ZM32.5119 99.775C31.7932 99.775 31.1399 99.6117 30.5519 99.285C29.9732 98.9584 29.5159 98.4964 29.1799 97.899C28.8532 97.2924 28.6899 96.5924 28.6899 95.799C28.6899 95.015 28.8579 94.3244 29.1939 93.727C29.5392 93.1204 30.0059 92.6584 30.5939 92.341C31.1819 92.0144 31.8399 91.851 32.5679 91.851C33.2959 91.851 33.9539 92.0144 34.5419 92.341C35.1299 92.6584 35.5919 93.1157 35.9279 93.713C36.2732 94.3104 36.4459 95.0057 36.4459 95.799C36.4459 96.5924 36.2686 97.2924 35.9139 97.899C35.5686 98.4964 35.0972 98.9584 34.4999 99.285C33.9026 99.6117 33.2399 99.775 32.5119 99.775ZM32.5119 98.655C32.9692 98.655 33.3986 98.5477 33.7999 98.333C34.2012 98.1184 34.5232 97.7964 34.7659 97.367C35.0179 96.9377 35.1439 96.415 35.1439 95.799C35.1439 95.183 35.0226 94.6604 34.7799 94.231C34.5372 93.8017 34.2199 93.4844 33.8279 93.279C33.4359 93.0644 33.0112 92.957 32.5539 92.957C32.0872 92.957 31.6579 93.0644 31.2659 93.279C30.8832 93.4844 30.5752 93.8017 30.3419 94.231C30.1086 94.6604 29.9919 95.183 29.9919 95.799C29.9919 96.4244 30.1039 96.9517 30.3279 97.381C30.5612 97.8104 30.8692 98.1324 31.2519 98.347C31.6346 98.5524 32.0546 98.655 32.5119 98.655ZM43.1274 93.391C43.3794 92.9524 43.7527 92.5884 44.2474 92.299C44.7514 92.0004 45.3347 91.851 45.9974 91.851C46.6787 91.851 47.2947 92.0144 47.8454 92.341C48.4054 92.6677 48.8441 93.1297 49.1614 93.727C49.4787 94.315 49.6374 95.001 49.6374 95.785C49.6374 96.5597 49.4787 97.2504 49.1614 97.857C48.8441 98.4637 48.4054 98.935 47.8454 99.271C47.2947 99.607 46.6787 99.775 45.9974 99.775C45.3441 99.775 44.7654 99.6304 44.2614 99.341C43.7667 99.0424 43.3887 98.6737 43.1274 98.235V103.289H41.8534V91.977H43.1274V93.391ZM48.3354 95.785C48.3354 95.2064 48.2187 94.7024 47.9854 94.273C47.7521 93.8437 47.4347 93.517 47.0334 93.293C46.6414 93.069 46.2074 92.957 45.7314 92.957C45.2647 92.957 44.8307 93.0737 44.4294 93.307C44.0374 93.531 43.7201 93.8624 43.4774 94.301C43.2441 94.7304 43.1274 95.2297 43.1274 95.799C43.1274 96.3777 43.2441 96.8864 43.4774 97.325C43.7201 97.7544 44.0374 98.0857 44.4294 98.319C44.8307 98.543 45.2647 98.655 45.7314 98.655C46.2074 98.655 46.6414 98.543 47.0334 98.319C47.4347 98.0857 47.7521 97.7544 47.9854 97.325C48.2187 96.8864 48.3354 96.373 48.3354 95.785ZM54.6603 99.775C53.9417 99.775 53.2883 99.6117 52.7003 99.285C52.1217 98.9584 51.6643 98.4964 51.3283 97.899C51.0017 97.2924 50.8383 96.5924 50.8383 95.799C50.8383 95.015 51.0063 94.3244 51.3423 93.727C51.6877 93.1204 52.1543 92.6584 52.7423 92.341C53.3303 92.0144 53.9883 91.851 54.7163 91.851C55.4443 91.851 56.1023 92.0144 56.6903 92.341C57.2783 92.6584 57.7403 93.1157 58.0763 93.713C58.4217 94.3104 58.5943 95.0057 58.5943 95.799C58.5943 96.5924 58.417 97.2924 58.0623 97.899C57.717 98.4964 57.2457 98.9584 56.6483 99.285C56.051 99.6117 55.3883 99.775 54.6603 99.775ZM54.6603 98.655C55.1177 98.655 55.547 98.5477 55.9483 98.333C56.3497 98.1184 56.6717 97.7964 56.9143 97.367C57.1663 96.9377 57.2923 96.415 57.2923 95.799C57.2923 95.183 57.171 94.6604 56.9283 94.231C56.6857 93.8017 56.3683 93.4844 55.9763 93.279C55.5843 93.0644 55.1597 92.957 54.7023 92.957C54.2357 92.957 53.8063 93.0644 53.4143 93.279C53.0317 93.4844 52.7237 93.8017 52.4903 94.231C52.257 94.6604 52.1403 95.183 52.1403 95.799C52.1403 96.4244 52.2523 96.9517 52.4763 97.381C52.7097 97.8104 53.0177 98.1324 53.4003 98.347C53.783 98.5524 54.203 98.655 54.6603 98.655ZM62.9854 99.775C62.3974 99.775 61.8701 99.677 61.4034 99.481C60.9367 99.2757 60.5681 98.9957 60.2974 98.641C60.0267 98.277 59.8774 97.8617 59.8494 97.395H61.1654C61.2027 97.7777 61.3801 98.0904 61.6974 98.333C62.0241 98.5757 62.4487 98.697 62.9714 98.697C63.4567 98.697 63.8394 98.5897 64.1194 98.375C64.3994 98.1604 64.5394 97.8897 64.5394 97.563C64.5394 97.227 64.3901 96.9797 64.0914 96.821C63.7927 96.653 63.3307 96.4897 62.7054 96.331C62.1361 96.1817 61.6694 96.0324 61.3054 95.883C60.9507 95.7244 60.6427 95.4957 60.3814 95.197C60.1294 94.889 60.0034 94.4877 60.0034 93.993C60.0034 93.601 60.1201 93.2417 60.3534 92.915C60.5867 92.5884 60.9181 92.3317 61.3474 92.145C61.7767 91.949 62.2667 91.851 62.8174 91.851C63.6667 91.851 64.3527 92.0657 64.8754 92.495C65.3981 92.9244 65.6781 93.5124 65.7154 94.259H64.4414C64.4134 93.8577 64.2501 93.5357 63.9514 93.293C63.6621 93.0504 63.2701 92.929 62.7754 92.929C62.3181 92.929 61.9541 93.027 61.6834 93.223C61.4127 93.419 61.2774 93.6757 61.2774 93.993C61.2774 94.245 61.3567 94.455 61.5154 94.623C61.6834 94.7817 61.8887 94.9124 62.1314 95.015C62.3834 95.1084 62.7287 95.2157 63.1674 95.337C63.7181 95.4864 64.1661 95.6357 64.5114 95.785C64.8567 95.925 65.1507 96.1397 65.3934 96.429C65.6454 96.7184 65.7761 97.0964 65.7854 97.563C65.7854 97.983 65.6687 98.361 65.4354 98.697C65.2021 99.033 64.8707 99.299 64.4414 99.495C64.0214 99.6817 63.5361 99.775 62.9854 99.775ZM69.1379 93.027V97.549C69.1379 97.9224 69.2172 98.1884 69.3759 98.347C69.5345 98.4964 69.8099 98.571 70.2019 98.571H71.1399V99.649H69.9919C69.2825 99.649 68.7505 99.4857 68.3959 99.159C68.0412 98.8324 67.8639 98.2957 67.8639 97.549V93.027H66.8699V91.977H67.8639V90.045H69.1379V91.977H71.1399V93.027H69.1379ZM79.6835 95.519C79.6835 95.7617 79.6695 96.0184 79.6415 96.289H73.5095C73.5561 97.045 73.8128 97.6377 74.2795 98.067C74.7555 98.487 75.3295 98.697 76.0015 98.697C76.5521 98.697 77.0095 98.571 77.3735 98.319C77.7468 98.0577 78.0081 97.7124 78.1575 97.283H79.5295C79.3241 98.0204 78.9135 98.6224 78.2975 99.089C77.6815 99.5464 76.9161 99.775 76.0015 99.775C75.2735 99.775 74.6201 99.6117 74.0415 99.285C73.4721 98.9584 73.0241 98.4964 72.6975 97.899C72.3708 97.2924 72.2075 96.5924 72.2075 95.799C72.2075 95.0057 72.3661 94.3104 72.6835 93.713C73.0008 93.1157 73.4441 92.6584 74.0135 92.341C74.5921 92.0144 75.2548 91.851 76.0015 91.851C76.7295 91.851 77.3735 92.0097 77.9335 92.327C78.4935 92.6444 78.9228 93.083 79.2215 93.643C79.5295 94.1937 79.6835 94.819 79.6835 95.519ZM78.3675 95.253C78.3675 94.7677 78.2601 94.3524 78.0455 94.007C77.8308 93.6524 77.5368 93.3864 77.1635 93.209C76.7995 93.0224 76.3935 92.929 75.9455 92.929C75.3015 92.929 74.7508 93.1344 74.2935 93.545C73.8455 93.9557 73.5888 94.525 73.5235 95.253H78.3675ZM82.6391 93.223C82.8631 92.7844 83.1804 92.4437 83.5911 92.201C84.0111 91.9584 84.5198 91.837 85.1171 91.837V93.153H84.7811C83.3531 93.153 82.6391 93.9277 82.6391 95.477V99.649H81.3651V91.977H82.6391V93.223ZM93.4422 93.027H91.8322V99.649H90.5582V93.027H89.5642V91.977H90.5582V91.431C90.5582 90.5724 90.7775 89.947 91.2162 89.555C91.6642 89.1537 92.3782 88.953 93.3582 88.953V90.017C92.7982 90.017 92.4015 90.129 92.1682 90.353C91.9442 90.5677 91.8322 90.927 91.8322 91.431V91.977H93.4422V93.027ZM98.2736 99.775C97.5549 99.775 96.9016 99.6117 96.3136 99.285C95.7349 98.9584 95.2776 98.4964 94.9416 97.899C94.6149 97.2924 94.4516 96.5924 94.4516 95.799C94.4516 95.015 94.6196 94.3244 94.9556 93.727C95.3009 93.1204 95.7676 92.6584 96.3556 92.341C96.9436 92.0144 97.6016 91.851 98.3296 91.851C99.0576 91.851 99.7156 92.0144 100.304 92.341C100.892 92.6584 101.354 93.1157 101.69 93.713C102.035 94.3104 102.208 95.0057 102.208 95.799C102.208 96.5924 102.03 97.2924 101.676 97.899C101.33 98.4964 100.859 98.9584 100.262 99.285C99.6643 99.6117 99.0016 99.775 98.2736 99.775ZM98.2736 98.655C98.7309 98.655 99.1603 98.5477 99.5616 98.333C99.9629 98.1184 100.285 97.7964 100.528 97.367C100.78 96.9377 100.906 96.415 100.906 95.799C100.906 95.183 100.784 94.6604 100.542 94.231C100.299 93.8017 99.9816 93.4844 99.5896 93.279C99.1976 93.0644 98.7729 92.957 98.3156 92.957C97.8489 92.957 97.4196 93.0644 97.0276 93.279C96.6449 93.4844 96.3369 93.8017 96.1036 94.231C95.8703 94.6604 95.7536 95.183 95.7536 95.799C95.7536 96.4244 95.8656 96.9517 96.0896 97.381C96.3229 97.8104 96.6309 98.1324 97.0136 98.347C97.3963 98.5524 97.8163 98.655 98.2736 98.655ZM110.687 91.977V99.649H109.413V98.515C109.17 98.907 108.829 99.215 108.391 99.439C107.961 99.6537 107.485 99.761 106.963 99.761C106.365 99.761 105.829 99.6397 105.353 99.397C104.877 99.145 104.499 98.7717 104.219 98.277C103.948 97.7824 103.813 97.1804 103.813 96.471V91.977H105.073V96.303C105.073 97.059 105.264 97.6424 105.647 98.053C106.029 98.4544 106.552 98.655 107.215 98.655C107.896 98.655 108.433 98.445 108.825 98.025C109.217 97.605 109.413 96.9937 109.413 96.191V91.977H110.687ZM116.576 91.837C117.509 91.837 118.265 92.1217 118.844 92.691C119.422 93.251 119.712 94.063 119.712 95.127V99.649H118.452V95.309C118.452 94.5437 118.26 93.9604 117.878 93.559C117.495 93.1484 116.972 92.943 116.31 92.943C115.638 92.943 115.101 93.153 114.7 93.573C114.308 93.993 114.112 94.6044 114.112 95.407V99.649H112.838V91.977H114.112V93.069C114.364 92.677 114.704 92.3737 115.134 92.159C115.572 91.9444 116.053 91.837 116.576 91.837ZM121.317 95.785C121.317 95.001 121.476 94.315 121.793 93.727C122.11 93.1297 122.544 92.6677 123.095 92.341C123.655 92.0144 124.28 91.851 124.971 91.851C125.568 91.851 126.124 91.991 126.637 92.271C127.15 92.5417 127.542 92.901 127.813 93.349V89.289H129.101V99.649H127.813V98.207C127.561 98.6644 127.188 99.0424 126.693 99.341C126.198 99.6304 125.62 99.775 124.957 99.775C124.276 99.775 123.655 99.607 123.095 99.271C122.544 98.935 122.11 98.4637 121.793 97.857C121.476 97.2504 121.317 96.5597 121.317 95.785ZM127.813 95.799C127.813 95.2204 127.696 94.7164 127.463 94.287C127.23 93.8577 126.912 93.531 126.511 93.307C126.119 93.0737 125.685 92.957 125.209 92.957C124.733 92.957 124.299 93.069 123.907 93.293C123.515 93.517 123.202 93.8437 122.969 94.273C122.736 94.7024 122.619 95.2064 122.619 95.785C122.619 96.373 122.736 96.8864 122.969 97.325C123.202 97.7544 123.515 98.0857 123.907 98.319C124.299 98.543 124.733 98.655 125.209 98.655C125.685 98.655 126.119 98.543 126.511 98.319C126.912 98.0857 127.23 97.7544 127.463 97.325C127.696 96.8864 127.813 96.3777 127.813 95.799Z" fill="white"/>
<path d="M26.9941 99.649V100.649H27.9941V99.649H26.9941ZM25.7201 99.649L24.8853 100.2L25.1817 100.649H25.7201V99.649ZM20.5961 91.879L21.431 91.3285L19.5961 88.5462V91.879H20.5961ZM20.5961 99.649V100.649H21.5961V99.649H20.5961ZM19.3221 99.649H18.3221V100.649H19.3221V99.649ZM19.3221 89.877V88.877H18.3221V89.877H19.3221ZM20.5961 89.877L21.4305 89.3258L21.134 88.877H20.5961V89.877ZM25.7201 97.633L24.8858 98.1843L26.7201 100.961V97.633H25.7201ZM25.7201 89.877V88.877H24.7201V89.877H25.7201ZM26.9941 89.877H27.9941V88.877H26.9941V89.877ZM26.9941 99.649V98.649H25.7201V99.649V100.649H26.9941V99.649ZM25.7201 99.649L26.555 99.0985L21.431 91.3285L20.5961 91.879L19.7613 92.4296L24.8853 100.2L25.7201 99.649ZM20.5961 91.879H19.5961V99.649H20.5961H21.5961V91.879H20.5961ZM20.5961 99.649V98.649H19.3221V99.649V100.649H20.5961V99.649ZM19.3221 99.649H20.3221V89.877H19.3221H18.3221V99.649H19.3221ZM19.3221 89.877V90.877H20.5961V89.877V88.877H19.3221V89.877ZM20.5961 89.877L19.7618 90.4283L24.8858 98.1843L25.7201 97.633L26.5545 97.0818L21.4305 89.3258L20.5961 89.877ZM25.7201 97.633H26.7201V89.877H25.7201H24.7201V97.633H25.7201ZM25.7201 89.877V90.877H26.9941V89.877V88.877H25.7201V89.877ZM26.9941 89.877H25.9941V99.649H26.9941H27.9941V89.877H26.9941ZM30.5519 99.285L30.0603 100.156L30.0662 100.159L30.5519 99.285ZM29.1799 97.899L28.2994 98.3731L28.3038 98.3813L28.3083 98.3893L29.1799 97.899ZM29.1939 93.727L28.3248 93.2323L28.3223 93.2368L29.1939 93.727ZM30.5939 92.341L31.0689 93.2211L31.0795 93.2152L30.5939 92.341ZM34.5419 92.341L34.0562 93.2153L34.067 93.2211L34.5419 92.341ZM35.9279 93.713L35.0563 94.2033L35.0622 94.2136L35.9279 93.713ZM35.9139 97.899L35.0506 97.3943L35.0482 97.3985L35.9139 97.899ZM34.4999 99.285L34.9797 100.162V100.162L34.4999 99.285ZM34.7659 97.367L33.9035 96.8608L33.8993 96.8679L33.8953 96.875L34.7659 97.367ZM33.8279 93.279L33.3476 94.1561L33.3557 94.1606L33.3639 94.1649L33.8279 93.279ZM31.2659 93.279L31.7387 94.1602L31.7462 94.1561L31.2659 93.279ZM30.3419 94.231L31.2205 94.7086V94.7086L30.3419 94.231ZM30.3279 97.381L29.4413 97.8436L29.4452 97.8511L29.4493 97.8586L30.3279 97.381ZM31.2519 98.347L30.7626 99.2192L30.7708 99.2238L30.7791 99.2282L31.2519 98.347ZM32.5119 99.775V98.775C31.9512 98.775 31.4668 98.6494 31.0375 98.4109L30.5519 99.285L30.0662 100.159C30.813 100.574 31.6353 100.775 32.5119 100.775V99.775ZM30.5519 99.285L31.0435 98.4142C30.629 98.1802 30.3009 97.8522 30.0515 97.4088L29.1799 97.899L28.3083 98.3893C28.7309 99.1406 29.3174 99.7365 30.0603 100.156L30.5519 99.285ZM29.1799 97.899L30.0604 97.4249C29.8233 96.9847 29.6899 96.4521 29.6899 95.799H28.6899H27.6899C27.6899 96.7326 27.8831 97.6001 28.2994 98.3731L29.1799 97.899ZM28.6899 95.799H29.6899C29.6899 95.1617 29.8251 94.6445 30.0655 94.2173L29.1939 93.727L28.3223 93.2368C27.8906 94.0042 27.6899 94.8684 27.6899 95.799H28.6899ZM29.1939 93.727L30.063 94.2217C30.32 93.7703 30.6533 93.4453 31.0688 93.2211L30.5939 92.341L30.119 91.461C29.3585 91.8714 28.7585 92.4705 28.3248 93.2323L29.1939 93.727ZM30.5939 92.341L31.0795 93.2152C31.5069 92.9778 31.9955 92.851 32.5679 92.851V91.851V90.851C31.6843 90.851 30.8569 91.051 30.1082 91.4669L30.5939 92.341ZM32.5679 91.851V92.851C33.1403 92.851 33.6289 92.9778 34.0562 93.2152L34.5419 92.341L35.0275 91.4669C34.2789 91.051 33.4515 90.851 32.5679 90.851V91.851ZM34.5419 92.341L34.067 93.2211C34.4841 93.4462 34.8105 93.7663 35.0563 94.2033L35.9279 93.713L36.7995 93.2228C36.3733 92.4651 35.7757 91.8706 35.0168 91.461L34.5419 92.341ZM35.9279 93.713L35.0622 94.2136C35.3071 94.6372 35.4459 95.1547 35.4459 95.799H36.4459H37.4459C37.4459 94.8567 37.2394 93.9836 36.7936 93.2125L35.9279 93.713ZM36.4459 95.799H35.4459C35.4459 96.4383 35.3046 96.9598 35.0506 97.3944L35.9139 97.899L36.7772 98.4037C37.2325 97.625 37.4459 96.7464 37.4459 95.799H36.4459ZM35.9139 97.899L35.0482 97.3985C34.7932 97.8395 34.4544 98.1701 34.0201 98.4077L34.4999 99.285L34.9797 100.162C35.74 99.7466 36.3439 99.1532 36.7796 98.3996L35.9139 97.899ZM34.4999 99.285L34.0201 98.4077C33.58 98.6483 33.0842 98.775 32.5119 98.775V99.775V100.775C33.3956 100.775 34.2251 100.575 34.9797 100.162L34.4999 99.285ZM32.5119 98.655V99.655C33.1329 99.655 33.7244 99.5075 34.2715 99.2148L33.7999 98.333L33.3282 97.4513C33.0727 97.5879 32.8055 97.655 32.5119 97.655V98.655ZM33.7999 98.333L34.2715 99.2148C34.8541 98.9032 35.3086 98.4392 35.6365 97.8591L34.7659 97.367L33.8953 96.875C33.7379 97.1536 33.5484 97.3335 33.3282 97.4513L33.7999 98.333ZM34.7659 97.367L35.6283 97.8732C35.9895 97.2579 36.1439 96.5511 36.1439 95.799H35.1439H34.1439C34.1439 96.279 34.0463 96.6175 33.9035 96.8608L34.7659 97.367ZM35.1439 95.799H36.1439C36.1439 95.053 35.9966 94.3515 35.6505 93.739L34.7799 94.231L33.9093 94.7231C34.0485 94.9693 34.1439 95.3131 34.1439 95.799H35.1439ZM34.7799 94.231L35.6505 93.739C35.3242 93.1618 34.8736 92.6979 34.2919 92.3932L33.8279 93.279L33.3639 94.1649C33.5661 94.2708 33.7502 94.4416 33.9093 94.7231L34.7799 94.231ZM33.8279 93.279L34.3082 92.402C33.7654 92.1047 33.175 91.957 32.5539 91.957V92.957V93.957C32.8474 93.957 33.1064 94.024 33.3476 94.1561L33.8279 93.279ZM32.5539 92.957V91.957C31.927 91.957 31.3314 92.103 30.7856 92.402L31.2659 93.279L31.7462 94.1561C31.9844 94.0257 32.2474 93.957 32.5539 93.957V92.957ZM31.2659 93.279L30.7931 92.3979C30.2178 92.7066 29.7776 93.1751 29.4633 93.7535L30.3419 94.231L31.2205 94.7086C31.3728 94.4283 31.5487 94.2622 31.7387 94.1602L31.2659 93.279ZM30.3419 94.231L29.4633 93.7535C29.1321 94.3628 28.9919 95.0589 28.9919 95.799H29.9919H30.9919C30.9919 95.3072 31.085 94.958 31.2205 94.7086L30.3419 94.231ZM29.9919 95.799H28.9919C28.9919 96.54 29.1243 97.236 29.4413 97.8436L30.3279 97.381L31.2145 96.9185C31.0835 96.6675 30.9919 96.3088 30.9919 95.799H29.9919ZM30.3279 97.381L29.4493 97.8586C29.762 98.4341 30.1973 98.9021 30.7626 99.2192L31.2519 98.347L31.7411 97.4749C31.5411 97.3627 31.3604 97.1867 31.2065 96.9035L30.3279 97.381ZM31.2519 98.347L30.7791 99.2282C31.3149 99.5157 31.8986 99.655 32.5119 99.655V98.655V97.655C32.2105 97.655 31.9542 97.589 31.7247 97.4659L31.2519 98.347ZM43.1274 93.391H42.1274V97.1393L43.9945 93.8892L43.1274 93.391ZM44.2474 92.299L44.7523 93.1622L44.7572 93.1593L44.2474 92.299ZM47.8454 92.341L47.3352 93.2011L47.3415 93.2048L47.8454 92.341ZM49.1614 93.727L48.2783 94.1962L48.2814 94.202L49.1614 93.727ZM49.1614 97.857L50.0475 98.3205V98.3205L49.1614 97.857ZM47.8454 99.271L47.3309 98.4135L47.3245 98.4174L47.8454 99.271ZM44.2614 99.341L43.7445 100.197L43.754 100.203L43.7635 100.208L44.2614 99.341ZM43.1274 98.235L43.9865 97.7232L42.1274 94.6026V98.235H43.1274ZM43.1274 103.289V104.289H44.1274V103.289H43.1274ZM41.8534 103.289H40.8534V104.289H41.8534V103.289ZM41.8534 91.977V90.977H40.8534V91.977H41.8534ZM43.1274 91.977H44.1274V90.977H43.1274V91.977ZM47.9854 94.273L48.864 93.7955V93.7955L47.9854 94.273ZM47.0334 93.293L46.5372 94.1613L46.546 94.1662L47.0334 93.293ZM44.4294 93.307L44.9255 94.1753L44.932 94.1716L44.4294 93.307ZM43.4774 94.301L42.6023 93.817L42.5988 93.8235L43.4774 94.301ZM43.4774 97.325L42.5945 97.7947L42.6005 97.806L42.6068 97.8171L43.4774 97.325ZM44.4294 98.319L43.9179 99.1783L43.9299 99.1855L43.942 99.1922L44.4294 98.319ZM47.0334 98.319L47.5295 99.1873L47.536 99.1836L47.0334 98.319ZM47.9854 97.325L48.864 97.8026L48.8683 97.7947L47.9854 97.325ZM43.1274 93.391L43.9945 93.8892C44.1486 93.6209 44.3878 93.3754 44.7523 93.1622L44.2474 92.299L43.7425 91.4359C43.1177 91.8013 42.6102 92.2839 42.2603 92.8929L43.1274 93.391ZM44.2474 92.299L44.7572 93.1593C45.0874 92.9636 45.4901 92.851 45.9974 92.851V91.851V90.851C45.1794 90.851 44.4153 91.0371 43.7376 91.4388L44.2474 92.299ZM45.9974 91.851V92.851C46.5111 92.851 46.9489 92.972 47.3352 93.2011L47.8454 92.341L48.3556 91.481C47.6405 91.0568 46.8463 90.851 45.9974 90.851V91.851ZM47.8454 92.341L47.3415 93.2048C47.7337 93.4336 48.0442 93.7557 48.2783 94.1962L49.1614 93.727L50.0445 93.2579C49.6439 92.5038 49.0771 91.9018 48.3493 91.4773L47.8454 92.341ZM49.1614 93.727L48.2814 94.202C48.5073 94.6207 48.6374 95.138 48.6374 95.785H49.6374H50.6374C50.6374 94.864 50.4501 94.0094 50.0414 93.2521L49.1614 93.727ZM49.6374 95.785H48.6374C48.6374 96.4197 48.5085 96.9478 48.2753 97.3936L49.1614 97.857L50.0475 98.3205C50.449 97.553 50.6374 96.6997 50.6374 95.785H49.6374ZM49.1614 97.857L48.2753 97.3935C48.0389 97.8455 47.7253 98.1769 47.3309 98.4136L47.8454 99.271L48.3599 100.129C49.0854 99.6932 49.6492 99.082 50.0475 98.3205L49.1614 97.857ZM47.8454 99.271L47.3245 98.4174C46.9397 98.6522 46.5057 98.775 45.9974 98.775V99.775V100.775C46.8517 100.775 47.6498 100.562 48.3663 100.125L47.8454 99.271ZM45.9974 99.775V98.775C45.4966 98.775 45.0936 98.6658 44.7593 98.4738L44.2614 99.341L43.7635 100.208C44.4371 100.595 45.1915 100.775 45.9974 100.775V99.775ZM44.2614 99.341L44.7783 98.485C44.4055 98.2599 44.1532 98.0031 43.9865 97.7232L43.1274 98.235L42.2683 98.7469C42.6242 99.3443 43.128 99.8249 43.7445 100.197L44.2614 99.341ZM43.1274 98.235H42.1274V103.289H43.1274H44.1274V98.235H43.1274ZM43.1274 103.289V102.289H41.8534V103.289V104.289H43.1274V103.289ZM41.8534 103.289H42.8534V91.977H41.8534H40.8534V103.289H41.8534ZM41.8534 91.977V92.977H43.1274V91.977V90.977H41.8534V91.977ZM43.1274 91.977H42.1274V93.391H43.1274H44.1274V91.977H43.1274ZM48.3354 95.785H49.3354C49.3354 95.0703 49.1905 94.3962 48.864 93.7955L47.9854 94.273L47.1068 94.7506C47.247 95.0085 47.3354 95.3425 47.3354 95.785H48.3354ZM47.9854 94.273L48.864 93.7955C48.5463 93.2109 48.0979 92.742 47.5208 92.4198L47.0334 93.293L46.546 94.1662C46.7715 94.2921 46.9578 94.4765 47.1068 94.7506L47.9854 94.273ZM47.0334 93.293L47.5295 92.4248C46.9781 92.1097 46.3716 91.957 45.7314 91.957V92.957V93.957C46.0432 93.957 46.3046 94.0284 46.5373 94.1613L47.0334 93.293ZM45.7314 92.957V91.957C45.0891 91.957 44.4816 92.12 43.9268 92.4425L44.4294 93.307L44.932 94.1716C45.1799 94.0275 45.4403 93.957 45.7314 93.957V92.957ZM44.4294 93.307L43.9333 92.4388C43.365 92.7635 42.9237 93.2362 42.6024 93.817L43.4774 94.301L44.3524 94.7851C44.5165 94.4886 44.7098 94.2986 44.9255 94.1753L44.4294 93.307ZM43.4774 94.301L42.5988 93.8235C42.2735 94.422 42.1274 95.0906 42.1274 95.799H43.1274H44.1274C44.1274 95.3688 44.2146 95.0388 44.356 94.7786L43.4774 94.301ZM43.1274 95.799H42.1274C42.1274 96.5144 42.2725 97.1893 42.5945 97.7947L43.4774 97.325L44.3603 96.8554C44.2156 96.5835 44.1274 96.241 44.1274 95.799H43.1274ZM43.4774 97.325L42.6068 97.8171C42.928 98.3854 43.3643 98.8488 43.9179 99.1783L44.4294 98.319L44.9409 97.4598C44.7105 97.3226 44.5121 97.1234 44.348 96.833L43.4774 97.325ZM44.4294 98.319L43.942 99.1922C44.4947 99.5007 45.0969 99.655 45.7314 99.655V98.655V97.655C45.4326 97.655 45.1667 97.5854 44.9168 97.4459L44.4294 98.319ZM45.7314 98.655V99.655C46.3716 99.655 46.9781 99.5024 47.5295 99.1873L47.0334 98.319L46.5373 97.4508C46.3046 97.5837 46.0432 97.655 45.7314 97.655V98.655ZM47.0334 98.319L47.536 99.1836C48.1043 98.8532 48.548 98.3841 48.864 97.8026L47.9854 97.325L47.1068 96.8475C46.9561 97.1247 46.7652 97.3182 46.5308 97.4545L47.0334 98.319ZM47.9854 97.325L48.8683 97.7947C49.1915 97.1871 49.3354 96.5068 49.3354 95.785H48.3354H47.3354C47.3354 96.2393 47.246 96.5857 47.1025 96.8554L47.9854 97.325ZM52.7003 99.285L52.2087 100.156L52.2147 100.159L52.7003 99.285ZM51.3283 97.899L50.4479 98.3731L50.4522 98.3813L50.4568 98.3893L51.3283 97.899ZM51.3423 93.727L50.4733 93.2323L50.4708 93.2368L51.3423 93.727ZM52.7423 92.341L53.2173 93.2211L53.228 93.2152L52.7423 92.341ZM56.6903 92.341L56.2047 93.2153L56.2154 93.2211L56.6903 92.341ZM58.0763 93.713L57.2047 94.2033L57.2106 94.2136L58.0763 93.713ZM58.0623 97.899L57.199 97.3943L57.1966 97.3985L58.0623 97.899ZM56.6483 99.285L57.1281 100.162V100.162L56.6483 99.285ZM56.9143 97.367L56.0519 96.8608L56.0478 96.8679L56.0438 96.875L56.9143 97.367ZM55.9763 93.279L55.496 94.1561L55.5041 94.1606L55.5123 94.1649L55.9763 93.279ZM53.4143 93.279L53.8872 94.1602L53.8946 94.1561L53.4143 93.279ZM52.4903 94.231L53.369 94.7086V94.7086L52.4903 94.231ZM52.4763 97.381L51.5897 97.8436L51.5937 97.8511L51.5977 97.8586L52.4763 97.381ZM53.4003 98.347L52.9111 99.2192L52.9193 99.2238L52.9275 99.2282L53.4003 98.347ZM54.6603 99.775V98.775C54.0996 98.775 53.6153 98.6494 53.186 98.4109L52.7003 99.285L52.2147 100.159C52.9614 100.574 53.7837 100.775 54.6603 100.775V99.775ZM52.7003 99.285L53.1919 98.4142C52.7774 98.1802 52.4493 97.8522 52.1999 97.4088L51.3283 97.899L50.4568 98.3893C50.8793 99.1406 51.4659 99.7365 52.2087 100.156L52.7003 99.285ZM51.3283 97.899L52.2088 97.4249C51.9717 96.9847 51.8383 96.4521 51.8383 95.799H50.8383H49.8383C49.8383 96.7326 50.0316 97.6001 50.4479 98.3731L51.3283 97.899ZM50.8383 95.799H51.8383C51.8383 95.1617 51.9736 94.6445 52.2139 94.2173L51.3423 93.727L50.4708 93.2368C50.0391 94.0042 49.8383 94.8684 49.8383 95.799H50.8383ZM51.3423 93.727L52.2114 94.2217C52.4684 93.7703 52.8017 93.4453 53.2173 93.2211L52.7423 92.341L52.2674 91.461C51.5069 91.8714 50.9069 92.4705 50.4733 93.2323L51.3423 93.727ZM52.7423 92.341L53.228 93.2152C53.6553 92.9778 54.1439 92.851 54.7163 92.851V91.851V90.851C53.8328 90.851 53.0053 91.051 52.2567 91.4669L52.7423 92.341ZM54.7163 91.851V92.851C55.2888 92.851 55.7773 92.9778 56.2047 93.2152L56.6903 92.341L57.176 91.4669C56.4273 91.051 55.5999 90.851 54.7163 90.851V91.851ZM56.6903 92.341L56.2154 93.2211C56.6325 93.4462 56.9589 93.7663 57.2048 94.2033L58.0763 93.713L58.9479 93.2228C58.5217 92.4651 57.9241 91.8706 57.1653 91.461L56.6903 92.341ZM58.0763 93.713L57.2106 94.2136C57.4555 94.6372 57.5943 95.1547 57.5943 95.799H58.5943H59.5943C59.5943 94.8567 59.3878 93.9836 58.9421 93.2125L58.0763 93.713ZM58.5943 95.799H57.5943C57.5943 96.4383 57.4531 96.9598 57.199 97.3944L58.0623 97.899L58.9256 98.4037C59.3809 97.625 59.5943 96.7464 59.5943 95.799H58.5943ZM58.0623 97.899L57.1966 97.3985C56.9417 97.8395 56.6029 98.1701 56.1685 98.4077L56.6483 99.285L57.1281 100.162C57.8885 99.7466 58.4923 99.1532 58.9281 98.3996L58.0623 97.899ZM56.6483 99.285L56.1685 98.4077C55.7285 98.6483 55.2326 98.775 54.6603 98.775V99.775V100.775C55.544 100.775 56.3735 100.575 57.1281 100.162L56.6483 99.285ZM54.6603 98.655V99.655C55.2814 99.655 55.8728 99.5075 56.42 99.2148L55.9483 98.333L55.4767 97.4513C55.2212 97.5879 54.9539 97.655 54.6603 97.655V98.655ZM55.9483 98.333L56.42 99.2148C57.0025 98.9032 57.457 98.4392 57.7849 97.8591L56.9143 97.367L56.0438 96.875C55.8863 97.1536 55.6968 97.3335 55.4767 97.4513L55.9483 98.333ZM56.9143 97.367L57.7767 97.8732C58.1379 97.2579 58.2923 96.5511 58.2923 95.799H57.2923H56.2923C56.2923 96.279 56.1947 96.6175 56.0519 96.8608L56.9143 97.367ZM57.2923 95.799H58.2923C58.2923 95.053 58.1451 94.3515 57.7989 93.739L56.9283 94.231L56.0578 94.7231C56.1969 94.9693 56.2923 95.3131 56.2923 95.799H57.2923ZM56.9283 94.231L57.7989 93.739C57.4727 93.1618 57.0221 92.6979 56.4403 92.3932L55.9763 93.279L55.5123 94.1649C55.7146 94.2708 55.8987 94.4416 56.0578 94.7231L56.9283 94.231ZM55.9763 93.279L56.4566 92.402C55.9139 92.1047 55.3235 91.957 54.7023 91.957V92.957V93.957C54.9959 93.957 55.2548 94.024 55.496 94.1561L55.9763 93.279ZM54.7023 92.957V91.957C54.0755 91.957 53.4799 92.103 52.934 92.402L53.4143 93.279L53.8946 94.1561C54.1328 94.0257 54.3959 93.957 54.7023 93.957V92.957ZM53.4143 93.279L52.9415 92.3979C52.3662 92.7066 51.9261 93.1751 51.6117 93.7535L52.4903 94.231L53.369 94.7086C53.5213 94.4283 53.6971 94.2622 53.8871 94.1602L53.4143 93.279ZM52.4903 94.231L51.6117 93.7535C51.2806 94.3628 51.1403 95.0589 51.1403 95.799H52.1403H53.1403C53.1403 95.3072 53.2334 94.958 53.369 94.7086L52.4903 94.231ZM52.1403 95.799H51.1403C51.1403 96.54 51.2727 97.236 51.5897 97.8436L52.4763 97.381L53.3629 96.9185C53.2319 96.6675 53.1403 96.3088 53.1403 95.799H52.1403ZM52.4763 97.381L51.5977 97.8586C51.9105 98.4341 52.3457 98.9021 52.9111 99.2192L53.4003 98.347L53.8896 97.4749C53.6896 97.3627 53.5088 97.1867 53.355 96.9035L52.4763 97.381ZM53.4003 98.347L52.9275 99.2282C53.4633 99.5157 54.0471 99.655 54.6603 99.655V98.655V97.655C54.3589 97.655 54.1027 97.589 53.8731 97.4659L53.4003 98.347ZM61.4034 99.481L61.0007 100.396L61.0084 100.4L61.0162 100.403L61.4034 99.481ZM60.2974 98.641L59.4949 99.2378L59.5025 99.2477L60.2974 98.641ZM59.8494 97.395V96.395H58.7876L58.8512 97.4549L59.8494 97.395ZM61.1654 97.395L62.1607 97.2979L62.0726 96.395H61.1654V97.395ZM61.6974 98.333L61.0899 99.1275L61.1011 99.1358L61.6974 98.333ZM64.0914 96.821L63.6011 97.6926L63.6116 97.6985L63.6222 97.7042L64.0914 96.821ZM62.7054 96.331L62.4517 97.2984L62.4595 97.3003L62.7054 96.331ZM61.3054 95.883L60.897 96.7959L60.9114 96.8023L60.9258 96.8082L61.3054 95.883ZM60.3814 95.197L59.6074 95.8303L59.6179 95.8431L59.6288 95.8556L60.3814 95.197ZM60.3534 92.915L59.5397 92.3338V92.3338L60.3534 92.915ZM61.3474 92.145L61.7461 93.0621L61.7544 93.0585L61.7627 93.0547L61.3474 92.145ZM64.8754 92.495L64.2407 93.2678L64.8754 92.495ZM65.7154 94.259V95.259H66.7667L66.7142 94.2091L65.7154 94.259ZM64.4414 94.259L63.4438 94.3286L63.5087 95.259H64.4414V94.259ZM63.9514 93.293L63.3088 94.0592L63.3148 94.0642L63.3208 94.0692L63.9514 93.293ZM61.6834 93.223L61.0969 92.4131V92.4131L61.6834 93.223ZM61.5154 94.623L60.7884 95.3097L60.808 95.3304L60.8288 95.3501L61.5154 94.623ZM62.1314 95.015L61.7418 95.936L61.7627 95.9449L61.7841 95.9528L62.1314 95.015ZM63.1674 95.337L62.9008 96.3009L62.9057 96.3022L63.1674 95.337ZM64.5114 95.785L64.1145 96.7029L64.125 96.7075L64.1357 96.7118L64.5114 95.785ZM65.3934 96.429L64.6272 97.0717L64.6332 97.0788L64.6393 97.0858L65.3934 96.429ZM65.7854 97.563H66.7854V97.553L66.7852 97.5431L65.7854 97.563ZM65.4354 98.697L64.614 98.1267V98.1267L65.4354 98.697ZM64.4414 99.495L64.8476 100.409L64.8567 100.405L64.4414 99.495ZM62.9854 99.775V98.775C62.5091 98.775 62.1165 98.6959 61.7906 98.5591L61.4034 99.481L61.0162 100.403C61.6236 100.658 62.2857 100.775 62.9854 100.775V99.775ZM61.4034 99.481L61.8061 98.5657C61.4718 98.4186 61.2466 98.2365 61.0924 98.0344L60.2974 98.641L59.5025 99.2477C59.8895 99.7549 60.4016 100.133 61.0007 100.396L61.4034 99.481ZM60.2974 98.641L61.0999 98.0443C60.949 97.8414 60.8643 97.614 60.8476 97.3352L59.8494 97.395L58.8512 97.4549C58.8905 98.1095 59.1045 98.7127 59.4949 99.2378L60.2974 98.641ZM59.8494 97.395V98.395H61.1654V97.395V96.395H59.8494V97.395ZM61.1654 97.395L60.1701 97.4921C60.2356 98.1629 60.5619 98.7236 61.09 99.1274L61.6974 98.333L62.3049 97.5387C62.1982 97.4571 62.1699 97.3925 62.1607 97.2979L61.1654 97.395ZM61.6974 98.333L61.1011 99.1358C61.6437 99.5389 62.2953 99.697 62.9714 99.697V98.697V97.697C62.6022 97.697 62.4045 97.6126 62.2937 97.5303L61.6974 98.333ZM62.9714 98.697V99.697C63.5954 99.697 64.2181 99.5594 64.7278 99.1687L64.1194 98.375L63.511 97.5814C63.4607 97.62 63.3181 97.697 62.9714 97.697V98.697ZM64.1194 98.375L64.7278 99.1687C65.2318 98.7823 65.5394 98.2284 65.5394 97.563H64.5394H63.5394C63.5394 97.5728 63.5384 97.5742 63.5395 97.5694C63.5407 97.5643 63.543 97.5577 63.5462 97.5516C63.5492 97.5457 63.5507 97.5449 63.547 97.5492C63.543 97.5538 63.5324 97.565 63.511 97.5814L64.1194 98.375ZM64.5394 97.563H65.5394C65.5394 97.243 65.4667 96.9122 65.2835 96.6087C65.1004 96.3055 64.842 96.0875 64.5606 95.9379L64.0914 96.821L63.6222 97.7042C63.6324 97.7095 63.628 97.7086 63.6159 97.6977C63.6031 97.6861 63.5866 97.6677 63.5713 97.6424C63.5561 97.6171 63.5472 97.5934 63.5426 97.5757C63.5383 97.5588 63.5394 97.5532 63.5394 97.563H64.5394ZM64.0914 96.821L64.5817 95.9495C64.1659 95.7156 63.601 95.5266 62.9513 95.3618L62.7054 96.331L62.4595 97.3003C63.0605 97.4528 63.4196 97.5905 63.6011 97.6926L64.0914 96.821ZM62.7054 96.331L62.9591 95.3638C62.4138 95.2207 61.9933 95.0844 61.685 94.9579L61.3054 95.883L60.9258 96.8082C61.3455 96.9804 61.8583 97.1427 62.4517 97.2983L62.7054 96.331ZM61.3054 95.883L61.7138 94.9702C61.4937 94.8718 61.3024 94.731 61.134 94.5385L60.3814 95.197L59.6288 95.8556C59.9831 96.2604 60.4078 96.577 60.897 96.7959L61.3054 95.883ZM60.3814 95.197L61.1554 94.5638C61.0823 94.4745 61.0034 94.3145 61.0034 93.993H60.0034H59.0034C59.0034 94.6609 59.1765 95.3036 59.6074 95.8303L60.3814 95.197ZM60.0034 93.993H61.0034C61.0034 93.8148 61.0518 93.6577 61.1671 93.4963L60.3534 92.915L59.5397 92.3338C59.1883 92.8257 59.0034 93.3873 59.0034 93.993H60.0034ZM60.3534 92.915L61.1671 93.4963C61.2787 93.3401 61.455 93.1887 61.7461 93.0621L61.3474 92.145L60.9487 91.228C60.3811 91.4747 59.8948 91.8367 59.5397 92.3338L60.3534 92.915ZM61.3474 92.145L61.7627 93.0547C62.0417 92.9274 62.3863 92.851 62.8174 92.851V91.851V90.851C62.1472 90.851 61.5118 90.9707 60.9321 91.2354L61.3474 92.145ZM62.8174 91.851V92.851C63.4959 92.851 63.9388 93.0198 64.2407 93.2678L64.8754 92.495L65.5101 91.7223C64.7667 91.1117 63.8376 90.851 62.8174 90.851V91.851ZM64.8754 92.495L64.2407 93.2678C64.5213 93.4983 64.6917 93.8108 64.7167 94.309L65.7154 94.259L66.7142 94.2091C66.6644 93.214 66.2749 92.3505 65.5101 91.7223L64.8754 92.495ZM65.7154 94.259V93.259H64.4414V94.259V95.259H65.7154V94.259ZM64.4414 94.259L65.439 94.1894C65.3927 93.5261 65.1063 92.9429 64.582 92.5169L63.9514 93.293L63.3208 94.0692C63.3939 94.1285 63.4341 94.1893 63.4438 94.3286L64.4414 94.259ZM63.9514 93.293L64.594 92.5269C64.0752 92.0917 63.4313 91.929 62.7754 91.929V92.929V93.929C63.1089 93.929 63.249 94.0091 63.3088 94.0592L63.9514 93.293ZM62.7754 92.929V91.929C62.1835 91.929 61.5909 92.0554 61.0969 92.4131L61.6834 93.223L62.2699 94.033C62.3173 93.9987 62.4526 93.929 62.7754 93.929V92.929ZM61.6834 93.223L61.0969 92.4131C60.5827 92.7854 60.2774 93.3355 60.2774 93.993H61.2774H62.2774C62.2774 93.9851 62.2782 93.987 62.2761 93.9959C62.2739 94.0052 62.2698 94.017 62.2635 94.029C62.2572 94.0408 62.2516 94.0475 62.2502 94.0491C62.2491 94.0503 62.2542 94.0444 62.2699 94.033L61.6834 93.223ZM61.2774 93.993H60.2774C60.2774 94.4751 60.4378 94.9385 60.7884 95.3097L61.5154 94.623L62.2424 93.9364C62.2459 93.9401 62.2514 93.9467 62.2575 93.9564C62.2636 93.9661 62.2687 93.9763 62.2724 93.9861C62.2803 94.0071 62.2774 94.013 62.2774 93.993H61.2774ZM61.5154 94.623L60.8288 95.3501C61.0947 95.6012 61.4046 95.7933 61.7418 95.936L62.1314 95.015L62.521 94.0941C62.3729 94.0314 62.2721 93.9622 62.202 93.896L61.5154 94.623ZM62.1314 95.015L61.7841 95.9528C62.0745 96.0604 62.4508 96.1764 62.9008 96.3009L63.1674 95.337L63.434 94.3732C63.0067 94.2551 62.6923 94.1564 62.4787 94.0773L62.1314 95.015ZM63.1674 95.337L62.9057 96.3022C63.4312 96.4447 63.8293 96.5796 64.1145 96.7029L64.5114 95.785L64.9083 94.8672C64.5029 94.6919 64.005 94.5281 63.4291 94.3719L63.1674 95.337ZM64.5114 95.785L64.1357 96.7118C64.3275 96.7895 64.4881 96.9058 64.6272 97.0717L65.3934 96.429L66.1596 95.7864C65.8134 95.3737 65.386 95.0605 64.8871 94.8583L64.5114 95.785ZM65.3934 96.429L64.6393 97.0858C64.7059 97.1622 64.7799 97.2982 64.7856 97.583L65.7854 97.563L66.7852 97.5431C66.7722 96.8946 66.5849 96.2745 66.1475 95.7723L65.3934 96.429ZM65.7854 97.563H64.7854C64.7854 97.785 64.7278 97.9628 64.614 98.1267L65.4354 98.697L66.2568 99.2674C66.6097 98.7593 66.7854 98.1811 66.7854 97.563H65.7854ZM65.4354 98.697L64.614 98.1267C64.498 98.2937 64.3176 98.4523 64.0261 98.5854L64.4414 99.495L64.8567 100.405C65.4239 100.146 65.9061 99.7724 66.2568 99.2674L65.4354 98.697ZM64.4414 99.495L64.0353 98.5812C63.7659 98.701 63.4234 98.775 62.9854 98.775V99.775V100.775C63.6488 100.775 64.2769 100.662 64.8475 100.409L64.4414 99.495ZM69.1379 93.027V92.027H68.1379V93.027H69.1379ZM69.3759 98.347L68.6688 99.0542L68.6795 99.0649L68.6905 99.0752L69.3759 98.347ZM71.1399 98.571H72.1399V97.571H71.1399V98.571ZM71.1399 99.649V100.649H72.1399V99.649H71.1399ZM68.3959 99.159L67.7184 99.8946L68.3959 99.159ZM67.8639 93.027H68.8639V92.027H67.8639V93.027ZM66.8699 93.027H65.8699V94.027H66.8699V93.027ZM66.8699 91.977V90.977H65.8699V91.977H66.8699ZM67.8639 91.977V92.977H68.8639V91.977H67.8639ZM67.8639 90.045V89.045H66.8639V90.045H67.8639ZM69.1379 90.045H70.1379V89.045H69.1379V90.045ZM69.1379 91.977H68.1379V92.977H69.1379V91.977ZM71.1399 91.977H72.1399V90.977H71.1399V91.977ZM71.1399 93.027V94.027H72.1399V93.027H71.1399ZM69.1379 93.027H68.1379V97.549H69.1379H70.1379V93.027H69.1379ZM69.1379 97.549H68.1379C68.1379 98.021 68.2308 98.6162 68.6688 99.0542L69.3759 98.347L70.083 97.6399C70.1457 97.7027 70.159 97.7538 70.1556 97.7427C70.154 97.7371 70.1493 97.7192 70.1451 97.6858C70.141 97.6525 70.1379 97.6075 70.1379 97.549H69.1379ZM69.3759 98.347L68.6905 99.0752C69.1354 99.494 69.7394 99.571 70.2019 99.571V98.571V97.571C70.0638 97.571 69.9903 97.5573 69.9631 97.5499C69.9366 97.5427 69.9897 97.5515 70.0612 97.6188L69.3759 98.347ZM70.2019 98.571V99.571H71.1399V98.571V97.571H70.2019V98.571ZM71.1399 98.571H70.1399V99.649H71.1399H72.1399V98.571H71.1399ZM71.1399 99.649V98.649H69.9919V99.649V100.649H71.1399V99.649ZM69.9919 99.649V98.649C69.4172 98.649 69.1727 98.515 69.0733 98.4235L68.3959 99.159L67.7184 99.8946C68.3284 100.456 69.1478 100.649 69.9919 100.649V99.649ZM68.3959 99.159L69.0733 98.4235C69.014 98.3689 68.8639 98.1677 68.8639 97.549H67.8639H66.8639C66.8639 98.4237 67.0683 99.2959 67.7184 99.8946L68.3959 99.159ZM67.8639 97.549H68.8639V93.027H67.8639H66.8639V97.549H67.8639ZM67.8639 93.027V92.027H66.8699V93.027V94.027H67.8639V93.027ZM66.8699 93.027H67.8699V91.977H66.8699H65.8699V93.027H66.8699ZM66.8699 91.977V92.977H67.8639V91.977V90.977H66.8699V91.977ZM67.8639 91.977H68.8639V90.045H67.8639H66.8639V91.977H67.8639ZM67.8639 90.045V91.045H69.1379V90.045V89.045H67.8639V90.045ZM69.1379 90.045H68.1379V91.977H69.1379H70.1379V90.045H69.1379ZM69.1379 91.977V92.977H71.1399V91.977V90.977H69.1379V91.977ZM71.1399 91.977H70.1399V93.027H71.1399H72.1399V91.977H71.1399ZM71.1399 93.027V92.027H69.1379V93.027V94.027H71.1399V93.027ZM79.6415 96.289V97.289H80.5434L80.6362 96.3919L79.6415 96.289ZM73.5095 96.289V95.289H72.4458L72.5114 96.3507L73.5095 96.289ZM74.2795 98.067L73.6024 98.803L73.6101 98.81L73.6178 98.8169L74.2795 98.067ZM77.3735 98.319L77.9427 99.1413L77.9469 99.1383L77.3735 98.319ZM78.1575 97.283V96.283H77.4465L77.213 96.9545L78.1575 97.283ZM79.5295 97.283L80.4928 97.5513L80.846 96.283H79.5295V97.283ZM78.2975 99.089L78.8936 99.892L78.9013 99.8861L78.2975 99.089ZM74.0415 99.285L73.5438 100.152L73.5499 100.156L74.0415 99.285ZM72.6975 97.899L71.817 98.3732L71.8201 98.3789L72.6975 97.899ZM72.6835 93.713L73.5666 94.1822V94.1822L72.6835 93.713ZM74.0135 92.341L74.5003 93.2145L74.5051 93.2119L74.0135 92.341ZM77.9335 92.327L77.4405 93.1971V93.1971L77.9335 92.327ZM79.2215 93.643L78.3391 94.1136L78.3438 94.1225L78.3487 94.1312L79.2215 93.643ZM78.3675 95.253V96.253H79.3675V95.253H78.3675ZM78.0455 94.007L77.1899 94.5249L77.1962 94.535L78.0455 94.007ZM77.1635 93.209L76.7072 94.0989L76.7207 94.1058L76.7344 94.1123L77.1635 93.209ZM74.2935 93.545L73.6253 92.801L73.6177 92.8079L74.2935 93.545ZM73.5235 95.253L72.5275 95.1637L72.4297 96.253H73.5235V95.253ZM79.6835 95.519H78.6835C78.6835 95.7235 78.6717 95.9456 78.6468 96.1861L79.6415 96.289L80.6362 96.3919C80.6673 96.0911 80.6835 95.7999 80.6835 95.519H79.6835ZM79.6415 96.289V95.289H73.5095V96.289V97.289H79.6415V96.289ZM73.5095 96.289L72.5114 96.3507C72.5707 97.311 72.9096 98.1656 73.6024 98.803L74.2795 98.067L74.9565 97.3311C74.716 97.1098 74.5416 96.779 74.5076 96.2274L73.5095 96.289ZM74.2795 98.067L73.6178 98.8169C74.2879 99.4081 75.1014 99.697 76.0015 99.697V98.697V97.697C75.5576 97.697 75.2231 97.566 74.9411 97.3172L74.2795 98.067ZM76.0015 98.697V99.697C76.7056 99.697 77.3746 99.5345 77.9427 99.1412L77.3735 98.319L76.8043 97.4969C76.6443 97.6076 76.3987 97.697 76.0015 97.697V98.697ZM77.3735 98.319L77.9469 99.1383C78.492 98.7568 78.8834 98.2399 79.102 97.6116L78.1575 97.283L77.213 96.9545C77.1329 97.1848 77.0016 97.3587 76.8 97.4998L77.3735 98.319ZM78.1575 97.283V98.283H79.5295V97.283V96.283H78.1575V97.283ZM79.5295 97.283L78.5661 97.0148C78.4201 97.539 78.137 97.9561 77.6936 98.292L78.2975 99.089L78.9013 99.8861C79.69 99.2887 80.2281 98.5017 80.4928 97.5513L79.5295 97.283ZM78.2975 99.089L77.7014 98.2861C77.289 98.5923 76.7439 98.775 76.0015 98.775V99.775V100.775C77.0884 100.775 78.0739 100.5 78.8936 99.892L78.2975 99.089ZM76.0015 99.775V98.775C75.4288 98.775 74.9477 98.6483 74.5331 98.4142L74.0415 99.285L73.5499 100.156C74.2926 100.575 75.1181 100.775 76.0015 100.775V99.775ZM74.0415 99.285L74.5391 98.4177C74.1358 98.1863 73.8165 97.8612 73.5748 97.4192L72.6975 97.899L71.8201 98.3789C72.2317 99.1316 72.8085 99.7305 73.5438 100.152L74.0415 99.285ZM72.6975 97.899L73.5779 97.4249C73.3409 96.9847 73.2075 96.4521 73.2075 95.799H72.2075H71.2075C71.2075 96.7326 71.4007 97.6001 71.817 98.3731L72.6975 97.899ZM72.2075 95.799H73.2075C73.2075 95.141 73.3383 94.612 73.5666 94.1822L72.6835 93.713L71.8004 93.2439C71.394 94.0088 71.2075 94.8704 71.2075 95.799H72.2075ZM72.6835 93.713L73.5666 94.1822C73.7971 93.7482 74.1058 93.4344 74.5003 93.2145L74.0135 92.341L73.5266 91.4676C72.7824 91.8824 72.2045 92.4832 71.8004 93.2439L72.6835 93.713ZM74.0135 92.341L74.5051 93.2119C74.9159 92.9799 75.4054 92.851 76.0015 92.851V91.851V90.851C75.1042 90.851 74.2684 91.0488 73.5219 91.4702L74.0135 92.341ZM76.0015 91.851V92.851C76.5797 92.851 77.0496 92.9756 77.4405 93.1971L77.9335 92.327L78.4265 91.457C77.6973 91.0438 76.8792 90.851 76.0015 90.851V91.851ZM77.9335 92.327L77.4405 93.1971C77.8379 93.4223 78.131 93.7235 78.3391 94.1136L79.2215 93.643L80.1038 93.1725C79.7146 92.4426 79.149 91.8665 78.4265 91.457L77.9335 92.327ZM79.2215 93.643L78.3487 94.1312C78.5644 94.5169 78.6835 94.9709 78.6835 95.519H79.6835H80.6835C80.6835 94.6672 80.4945 93.8706 80.0942 93.1549L79.2215 93.643ZM78.3675 95.253H79.3675C79.3675 94.6176 79.2256 94.0113 78.8948 93.4791L78.0455 94.007L77.1962 94.535C77.2947 94.6935 77.3675 94.9178 77.3675 95.253H78.3675ZM78.0455 94.007L78.901 93.4892C78.5853 92.9677 78.1432 92.5674 77.5925 92.3058L77.1635 93.209L76.7344 94.1123C76.9304 94.2054 77.0763 94.3371 77.19 94.5248L78.0455 94.007ZM77.1635 93.209L77.6198 92.3192C77.1015 92.0534 76.5368 91.929 75.9455 91.929V92.929V93.929C76.2502 93.929 76.4974 93.9913 76.7072 94.0989L77.1635 93.209ZM75.9455 92.929V91.929C75.0677 91.929 74.2756 92.2171 73.6253 92.801L74.2935 93.545L74.9616 94.2891C75.226 94.0516 75.5352 93.929 75.9455 93.929V92.929ZM74.2935 93.545L73.6177 92.8079C72.9501 93.4199 72.6103 94.2405 72.5275 95.1637L73.5235 95.253L74.5195 95.3424C74.5673 94.8096 74.7408 94.4916 74.9692 94.2822L74.2935 93.545ZM73.5235 95.253V96.253H78.3675V95.253V94.253H73.5235V95.253ZM82.6391 93.223H81.6391L83.5297 93.6778L82.6391 93.223ZM83.5911 92.201L83.0908 91.3351L83.0824 91.3401L83.5911 92.201ZM85.1171 91.837H86.1171V90.837H85.1171V91.837ZM85.1171 93.153V94.153H86.1171V93.153H85.1171ZM82.6391 99.649V100.649H83.6391V99.649H82.6391ZM81.3651 99.649H80.3651V100.649H81.3651V99.649ZM81.3651 91.977V90.977H80.3651V91.977H81.3651ZM82.6391 91.977H83.6391V90.977H82.6391V91.977ZM82.6391 93.223L83.5297 93.6778C83.6705 93.4022 83.8579 93.2049 84.0998 93.062L83.5911 92.201L83.0824 91.3401C82.503 91.6825 82.0558 92.1666 81.7485 92.7683L82.6391 93.223ZM83.5911 92.201L84.0914 93.0669C84.3278 92.9303 84.6551 92.837 85.1171 92.837V91.837V90.837C84.3845 90.837 83.6944 90.9864 83.0908 91.3352L83.5911 92.201ZM85.1171 91.837H84.1171V93.153H85.1171H86.1171V91.837H85.1171ZM85.1171 93.153V92.153H84.7811V93.153V94.153H85.1171V93.153ZM84.7811 93.153V92.153C83.8911 92.153 83.0458 92.3982 82.4393 93.0563C81.847 93.699 81.6391 94.5675 81.6391 95.477H82.6391H83.6391C83.6391 94.8372 83.7882 94.5438 83.9099 94.4118C84.0174 94.2952 84.2432 94.153 84.7811 94.153V93.153ZM82.6391 95.477H81.6391V99.649H82.6391H83.6391V95.477H82.6391ZM82.6391 99.649V98.649H81.3651V99.649V100.649H82.6391V99.649ZM81.3651 99.649H82.3651V91.977H81.3651H80.3651V99.649H81.3651ZM81.3651 91.977V92.977H82.6391V91.977V90.977H81.3651V91.977ZM82.6391 91.977H81.6391V93.223H82.6391H83.6391V91.977H82.6391ZM93.4422 93.027V94.027H94.4422V93.027H93.4422ZM91.8322 93.027V92.027H90.8322V93.027H91.8322ZM91.8322 99.649V100.649H92.8322V99.649H91.8322ZM90.5582 99.649H89.5582V100.649H90.5582V99.649ZM90.5582 93.027H91.5582V92.027H90.5582V93.027ZM89.5642 93.027H88.5642V94.027H89.5642V93.027ZM89.5642 91.977V90.977H88.5642V91.977H89.5642ZM90.5582 91.977V92.977H91.5582V91.977H90.5582ZM91.2162 89.555L91.8825 90.3007L91.8834 90.2999L91.2162 89.555ZM93.3582 88.953H94.3582V87.953H93.3582V88.953ZM93.3582 90.017V91.017H94.3582V90.017H93.3582ZM92.1682 90.353L92.8601 91.075L92.8607 91.0744L92.1682 90.353ZM91.8322 91.977H90.8322V92.977H91.8322V91.977ZM93.4422 91.977H94.4422V90.977H93.4422V91.977ZM93.4422 93.027V92.027H91.8322V93.027V94.027H93.4422V93.027ZM91.8322 93.027H90.8322V99.649H91.8322H92.8322V93.027H91.8322ZM91.8322 99.649V98.649H90.5582V99.649V100.649H91.8322V99.649ZM90.5582 99.649H91.5582V93.027H90.5582H89.5582V99.649H90.5582ZM90.5582 93.027V92.027H89.5642V93.027V94.027H90.5582V93.027ZM89.5642 93.027H90.5642V91.977H89.5642H88.5642V93.027H89.5642ZM89.5642 91.977V92.977H90.5582V91.977V90.977H89.5642V91.977ZM90.5582 91.977H91.5582V91.431H90.5582H89.5582V91.977H90.5582ZM90.5582 91.431H91.5582C91.5582 90.724 91.7384 90.4294 91.8825 90.3007L91.2162 89.555L90.5499 88.8094C89.8166 89.4646 89.5582 90.4207 89.5582 91.431H90.5582ZM91.2162 89.555L91.8834 90.2999C92.0627 90.1393 92.4788 89.953 93.3582 89.953V88.953V87.953C92.2776 87.953 91.2657 88.1681 90.5489 88.8102L91.2162 89.555ZM93.3582 88.953H92.3582V90.017H93.3582H94.3582V88.953H93.3582ZM93.3582 90.017V89.017C92.7145 89.017 91.9914 89.1365 91.4757 89.6317L92.1682 90.353L92.8607 91.0744C92.8309 91.103 92.8297 91.0868 92.9124 91.0634C92.9971 91.0395 93.1396 91.017 93.3582 91.017V90.017ZM92.1682 90.353L91.4763 89.6311C90.9623 90.1236 90.8322 90.8183 90.8322 91.431H91.8322H92.8322C92.8322 91.248 92.8531 91.1381 92.8709 91.0811C92.8872 91.0287 92.8936 91.0429 92.8601 91.075L92.1682 90.353ZM91.8322 91.431H90.8322V91.977H91.8322H92.8322V91.431H91.8322ZM91.8322 91.977V92.977H93.4422V91.977V90.977H91.8322V91.977ZM93.4422 91.977H92.4422V93.027H93.4422H94.4422V91.977H93.4422ZM96.3136 99.285L95.822 100.156L95.828 100.159L96.3136 99.285ZM94.9416 97.899L94.0611 98.3731L94.0655 98.3813L94.07 98.3893L94.9416 97.899ZM94.9556 93.727L94.0865 93.2323L94.084 93.2368L94.9556 93.727ZM96.3556 92.341L96.8306 93.2211L96.8413 93.2152L96.3556 92.341ZM100.304 92.341L99.8179 93.2153L99.8287 93.2211L100.304 92.341ZM101.69 93.713L100.818 94.2033L100.824 94.2136L101.69 93.713ZM101.676 97.899L100.812 97.3943L100.81 97.3985L101.676 97.899ZM100.262 99.285L100.741 100.162V100.162L100.262 99.285ZM100.528 97.367L99.6652 96.8608L99.6611 96.8679L99.657 96.875L100.528 97.367ZM99.5896 93.279L99.1093 94.1561L99.1174 94.1606L99.1256 94.1649L99.5896 93.279ZM97.0276 93.279L97.5004 94.1602L97.5079 94.1561L97.0276 93.279ZM96.1036 94.231L96.9822 94.7086V94.7086L96.1036 94.231ZM96.0896 97.381L95.203 97.8436L95.2069 97.8511L95.211 97.8586L96.0896 97.381ZM97.0136 98.347L96.5244 99.2192L96.5325 99.2238L96.5408 99.2282L97.0136 98.347ZM98.2736 99.775V98.775C97.7129 98.775 97.2285 98.6494 96.7993 98.4109L96.3136 99.285L95.828 100.159C96.5747 100.574 97.397 100.775 98.2736 100.775V99.775ZM96.3136 99.285L96.8052 98.4142C96.3907 98.1802 96.0626 97.8522 95.8132 97.4088L94.9416 97.899L94.07 98.3893C94.4926 99.1406 95.0792 99.7365 95.822 100.156L96.3136 99.285ZM94.9416 97.899L95.8221 97.4249C95.585 96.9847 95.4516 96.4521 95.4516 95.799H94.4516H93.4516C93.4516 96.7326 93.6449 97.6001 94.0611 98.3731L94.9416 97.899ZM94.4516 95.799H95.4516C95.4516 95.1617 95.5869 94.6445 95.8272 94.2173L94.9556 93.727L94.084 93.2368C93.6524 94.0042 93.4516 94.8684 93.4516 95.799H94.4516ZM94.9556 93.727L95.8247 94.2217C96.0817 93.7703 96.415 93.4453 96.8305 93.2211L96.3556 92.341L95.8807 91.461C95.1202 91.8714 94.5202 92.4705 94.0865 93.2323L94.9556 93.727ZM96.3556 92.341L96.8413 93.2152C97.2686 92.9778 97.7572 92.851 98.3296 92.851V91.851V90.851C97.446 90.851 96.6186 91.051 95.87 91.4669L96.3556 92.341ZM98.3296 91.851V92.851C98.902 92.851 99.3906 92.9778 99.818 93.2152L100.304 92.341L100.789 91.4669C100.041 91.051 99.2132 90.851 98.3296 90.851V91.851ZM100.304 92.341L99.8287 93.2211C100.246 93.4462 100.572 93.7663 100.818 94.2033L101.69 93.713L102.561 93.2228C102.135 92.4651 101.537 91.8706 100.779 91.461L100.304 92.341ZM101.69 93.713L100.824 94.2136C101.069 94.6372 101.208 95.1547 101.208 95.799H102.208H103.208C103.208 94.8567 103.001 93.9836 102.555 93.2125L101.69 93.713ZM102.208 95.799H101.208C101.208 96.4383 101.066 96.9598 100.812 97.3944L101.676 97.899L102.539 98.4037C102.994 97.625 103.208 96.7464 103.208 95.799H102.208ZM101.676 97.899L100.81 97.3985C100.555 97.8395 100.216 98.1701 99.7818 98.4077L100.262 99.285L100.741 100.162C101.502 99.7466 102.106 99.1532 102.541 98.3996L101.676 97.899ZM100.262 99.285L99.7818 98.4077C99.3418 98.6483 98.8459 98.775 98.2736 98.775V99.775V100.775C99.1573 100.775 99.9868 100.575 100.741 100.162L100.262 99.285ZM98.2736 98.655V99.655C98.8947 99.655 99.4861 99.5075 100.033 99.2148L99.5616 98.333L99.09 97.4513C98.8344 97.5879 98.5672 97.655 98.2736 97.655V98.655ZM99.5616 98.333L100.033 99.2148C100.616 98.9032 101.07 98.4392 101.398 97.8591L100.528 97.367L99.657 96.875C99.4996 97.1536 99.3101 97.3335 99.09 97.4513L99.5616 98.333ZM100.528 97.367L101.39 97.8732C101.751 97.2579 101.906 96.5511 101.906 95.799H100.906H99.9056C99.9056 96.279 99.808 96.6175 99.6652 96.8608L100.528 97.367ZM100.906 95.799H101.906C101.906 95.053 101.758 94.3515 101.412 93.739L100.542 94.231L99.671 94.7231C99.8102 94.9693 99.9056 95.3131 99.9056 95.799H100.906ZM100.542 94.231L101.412 93.739C101.086 93.1618 100.635 92.6979 100.054 92.3932L99.5896 93.279L99.1256 94.1649C99.3279 94.2708 99.5119 94.4416 99.671 94.7231L100.542 94.231ZM99.5896 93.279L100.07 92.402C99.5271 92.1047 98.9368 91.957 98.3156 91.957V92.957V93.957C98.6091 93.957 98.8681 94.024 99.1093 94.1561L99.5896 93.279ZM98.3156 92.957V91.957C97.6888 91.957 97.0931 92.103 96.5473 92.402L97.0276 93.279L97.5079 94.1561C97.7461 94.0257 98.0091 93.957 98.3156 93.957V92.957ZM97.0276 93.279L96.5548 92.3979C95.9795 92.7066 95.5393 93.1751 95.225 93.7535L96.1036 94.231L96.9822 94.7086C97.1346 94.4283 97.3104 94.2622 97.5004 94.1602L97.0276 93.279ZM96.1036 94.231L95.225 93.7535C94.8939 94.3628 94.7536 95.0589 94.7536 95.799H95.7536H96.7536C96.7536 95.3072 96.8467 94.958 96.9822 94.7086L96.1036 94.231ZM95.7536 95.799H94.7536C94.7536 96.54 94.886 97.236 95.203 97.8436L96.0896 97.381L96.9762 96.9185C96.8452 96.6675 96.7536 96.3088 96.7536 95.799H95.7536ZM96.0896 97.381L95.211 97.8586C95.5238 98.4341 95.959 98.9021 96.5244 99.2192L97.0136 98.347L97.5029 97.4749C97.3029 97.3627 97.1221 97.1867 96.9682 96.9035L96.0896 97.381ZM97.0136 98.347L96.5408 99.2282C97.0766 99.5157 97.6603 99.655 98.2736 99.655V98.655V97.655C97.9722 97.655 97.7159 97.589 97.4864 97.4659L97.0136 98.347ZM110.687 91.977H111.687V90.977H110.687V91.977ZM110.687 99.649V100.649H111.687V99.649H110.687ZM109.413 99.649H108.413V100.649H109.413V99.649ZM109.413 98.515H110.413V94.9998L108.562 97.9887L109.413 98.515ZM108.391 99.439L108.838 100.334L108.845 100.33L108.391 99.439ZM105.353 99.397L104.885 100.281L104.892 100.284L104.898 100.288L105.353 99.397ZM104.219 98.277L103.341 98.7571L103.345 98.7634L103.348 98.7696L104.219 98.277ZM103.813 91.977V90.977H102.813V91.977H103.813ZM105.073 91.977H106.073V90.977H105.073V91.977ZM105.647 98.053L104.915 98.7348L104.923 98.7431L105.647 98.053ZM108.825 98.025L108.094 97.3427V97.3427L108.825 98.025ZM109.413 91.977V90.977H108.413V91.977H109.413ZM110.687 91.977H109.687V99.649H110.687H111.687V91.977H110.687ZM110.687 99.649V98.649H109.413V99.649V100.649H110.687V99.649ZM109.413 99.649H110.413V98.515H109.413H108.413V99.649H109.413ZM109.413 98.515L108.562 97.9887C108.422 98.2148 108.224 98.4016 107.936 98.5484L108.391 99.439L108.845 100.33C109.435 100.029 109.918 99.5993 110.263 99.0414L109.413 98.515ZM108.391 99.439L107.943 98.5446C107.665 98.6838 107.344 98.761 106.963 98.761V99.761V100.761C107.627 100.761 108.258 100.624 108.838 100.333L108.391 99.439ZM106.963 99.761V98.761C106.504 98.761 106.126 98.669 105.807 98.5061L105.353 99.397L104.898 100.288C105.531 100.61 106.226 100.761 106.963 100.761V99.761ZM105.353 99.397L105.821 98.5133C105.523 98.3556 105.28 98.1226 105.089 97.7844L104.219 98.277L103.348 98.7696C103.717 99.4208 104.231 99.9345 104.885 100.281L105.353 99.397ZM104.219 98.277L105.096 97.797C104.924 97.4828 104.813 97.0551 104.813 96.471H103.813H102.813C102.813 97.3057 102.972 98.082 103.341 98.7571L104.219 98.277ZM103.813 96.471H104.813V91.977H103.813H102.813V96.471H103.813ZM103.813 91.977V92.977H105.073V91.977V90.977H103.813V91.977ZM105.073 91.977H104.073V96.303H105.073H106.073V91.977H105.073ZM105.073 96.303H104.073C104.073 97.2227 104.307 98.0826 104.915 98.7348L105.647 98.053L106.378 97.3713C106.221 97.2022 106.073 96.8954 106.073 96.303H105.073ZM105.647 98.053L104.923 98.7431C105.531 99.3805 106.336 99.655 107.215 99.655V98.655V97.655C106.768 97.655 106.528 97.5282 106.37 97.363L105.647 98.053ZM107.215 98.655V99.655C108.117 99.655 108.94 99.3676 109.556 98.7074L108.825 98.025L108.094 97.3427C107.926 97.5225 107.675 97.655 107.215 97.655V98.655ZM108.825 98.025L109.556 98.7074C110.179 98.0396 110.413 97.1459 110.413 96.191H109.413H108.413C108.413 96.8415 108.254 97.1705 108.094 97.3427L108.825 98.025ZM109.413 96.191H110.413V91.977H109.413H108.413V96.191H109.413ZM109.413 91.977V92.977H110.687V91.977V90.977H109.413V91.977ZM118.844 92.691L118.142 93.4039L118.148 93.4096L118.844 92.691ZM119.712 99.649V100.649H120.712V99.649H119.712ZM118.452 99.649H117.452V100.649H118.452V99.649ZM117.878 93.559L117.146 94.2408L117.154 94.2491L117.878 93.559ZM114.7 93.573L113.977 92.8821L113.969 92.8907L114.7 93.573ZM114.112 99.649V100.649H115.112V99.649H114.112ZM112.838 99.649H111.838V100.649H112.838V99.649ZM112.838 91.977V90.977H111.838V91.977H112.838ZM114.112 91.977H115.112V90.977H114.112V91.977ZM114.112 93.069H113.112V96.4739L114.953 93.6098L114.112 93.069ZM115.134 92.159L114.694 91.2608L114.687 91.2646L115.134 92.159ZM116.576 91.837V92.837C117.289 92.837 117.779 93.0464 118.142 93.4039L118.844 92.691L119.545 91.9782C118.751 91.197 117.729 90.837 116.576 90.837V91.837ZM118.844 92.691L118.148 93.4096C118.476 93.7264 118.712 94.2433 118.712 95.127H119.712H120.712C120.712 93.8828 120.369 92.7757 119.539 91.9724L118.844 92.691ZM119.712 95.127H118.712V99.649H119.712H120.712V95.127H119.712ZM119.712 99.649V98.649H118.452V99.649V100.649H119.712V99.649ZM118.452 99.649H119.452V95.309H118.452H117.452V99.649H118.452ZM118.452 95.309H119.452C119.452 94.3857 119.22 93.5173 118.602 92.869L117.878 93.559L117.154 94.2491C117.301 94.4034 117.452 94.7017 117.452 95.309H118.452ZM117.878 93.559L118.609 92.8773C118.003 92.227 117.195 91.943 116.31 91.943V92.943V93.943C116.749 93.943 116.987 94.0698 117.146 94.2408L117.878 93.559ZM116.31 92.943V91.943C115.411 91.943 114.597 92.2334 113.977 92.8822L114.7 93.573L115.423 94.2639C115.605 94.0727 115.864 93.943 116.31 93.943V92.943ZM114.7 93.573L113.969 92.8907C113.345 93.5585 113.112 94.4522 113.112 95.407H114.112H115.112C115.112 94.7566 115.27 94.4276 115.431 94.2554L114.7 93.573ZM114.112 95.407H113.112V99.649H114.112H115.112V95.407H114.112ZM114.112 99.649V98.649H112.838V99.649V100.649H114.112V99.649ZM112.838 99.649H113.838V91.977H112.838H111.838V99.649H112.838ZM112.838 91.977V92.977H114.112V91.977V90.977H112.838V91.977ZM114.112 91.977H113.112V93.069H114.112H115.112V91.977H114.112ZM114.112 93.069L114.953 93.6098C115.105 93.3736 115.307 93.1903 115.581 93.0535L115.134 92.159L114.687 91.2646C114.102 91.5571 113.623 91.9805 113.271 92.5283L114.112 93.069ZM115.134 92.159L115.573 93.0573C115.866 92.9142 116.195 92.837 116.576 92.837V91.837V90.837C115.912 90.837 115.279 90.9746 114.694 91.2608L115.134 92.159ZM121.793 93.727L122.673 94.202L122.676 94.1962L121.793 93.727ZM123.095 92.341L122.591 91.4772L122.585 91.481L123.095 92.341ZM126.637 92.271L126.158 93.149L126.17 93.1556L126.637 92.271ZM127.813 93.349L126.957 93.8662L128.813 96.938V93.349H127.813ZM127.813 89.289V88.289H126.813V89.289H127.813ZM129.101 89.289H130.101V88.289H129.101V89.289ZM129.101 99.649V100.649H130.101V99.649H129.101ZM127.813 99.649H126.813V100.649H127.813V99.649ZM127.813 98.207H128.813L126.937 97.7244L127.813 98.207ZM126.693 99.341L127.198 100.204L127.21 100.197L126.693 99.341ZM123.095 99.271L122.574 100.125L122.58 100.129L123.095 99.271ZM121.793 97.857L122.679 97.3935V97.3935L121.793 97.857ZM126.511 93.307L125.999 94.1663L126.011 94.1735L126.023 94.1802L126.511 93.307ZM123.907 93.293L123.411 92.4248V92.4248L123.907 93.293ZM122.969 94.273L123.847 94.7506V94.7506L122.969 94.273ZM122.969 97.325L122.086 97.7947L122.09 97.8026L122.969 97.325ZM123.907 98.319L123.395 99.1783L123.403 99.1829L123.411 99.1873L123.907 98.319ZM126.511 98.319L127.007 99.1873L127.013 99.1836L126.511 98.319ZM127.463 97.325L128.342 97.8026L128.346 97.7947L127.463 97.325ZM121.317 95.785H122.317C122.317 95.138 122.447 94.6207 122.673 94.202L121.793 93.727L120.913 93.2521C120.504 94.0094 120.317 94.864 120.317 95.785H121.317ZM121.793 93.727L122.676 94.1962C122.912 93.7514 123.221 93.4288 123.605 93.2011L123.095 92.341L122.585 91.481C121.867 91.9066 121.308 92.5081 120.91 93.2579L121.793 93.727ZM123.095 92.341L123.599 93.2048C123.996 92.9732 124.445 92.851 124.971 92.851V91.851V90.851C124.115 90.851 123.314 91.0555 122.591 91.4773L123.095 92.341ZM124.971 91.851V92.851C125.405 92.851 125.795 92.9508 126.158 93.1489L126.637 92.271L127.116 91.3932C126.452 91.0312 125.732 90.851 124.971 90.851V91.851ZM126.637 92.271L126.17 93.1556C126.541 93.351 126.79 93.5903 126.957 93.8662L127.813 93.349L128.669 92.8319C128.294 92.2118 127.759 91.7325 127.103 91.3865L126.637 92.271ZM127.813 93.349H128.813V89.289H127.813H126.813V93.349H127.813ZM127.813 89.289V90.289H129.101V89.289V88.289H127.813V89.289ZM129.101 89.289H128.101V99.649H129.101H130.101V89.289H129.101ZM129.101 99.649V98.649H127.813V99.649V100.649H129.101V99.649ZM127.813 99.649H128.813V98.207H127.813H126.813V99.649H127.813ZM127.813 98.207L126.937 97.7244C126.779 98.0119 126.537 98.2672 126.176 98.485L126.693 99.341L127.21 100.197C127.838 99.8176 128.343 99.3168 128.689 98.6897L127.813 98.207ZM126.693 99.341L126.188 98.4779C125.869 98.6644 125.47 98.775 124.957 98.775V99.775V100.775C125.769 100.775 126.527 100.596 127.198 100.204L126.693 99.341ZM124.957 99.775V98.775C124.449 98.775 124.007 98.6522 123.609 98.4136L123.095 99.271L122.58 100.129C123.303 100.562 124.102 100.775 124.957 100.775V99.775ZM123.095 99.271L123.616 98.4174C123.23 98.1818 122.918 97.8497 122.679 97.3935L121.793 97.857L120.907 98.3205C121.303 99.0777 121.859 99.6883 122.574 100.125L123.095 99.271ZM121.793 97.857L122.679 97.3935C122.446 96.9478 122.317 96.4197 122.317 95.785H121.317H120.317C120.317 96.6997 120.505 97.553 120.907 98.3205L121.793 97.857ZM127.813 95.799H128.813C128.813 95.0843 128.668 94.4102 128.341 93.8095L127.463 94.287L126.584 94.7646C126.724 95.0225 126.813 95.3565 126.813 95.799H127.813ZM127.463 94.287L128.341 93.8095C128.024 93.2249 127.575 92.756 126.998 92.4338L126.511 93.307L126.023 94.1802C126.249 94.3061 126.435 94.4905 126.584 94.7646L127.463 94.287ZM126.511 93.307L127.022 92.4478C126.469 92.1182 125.857 91.957 125.209 91.957V92.957V93.957C125.513 93.957 125.769 94.0292 125.999 94.1663L126.511 93.307ZM125.209 92.957V91.957C124.569 91.957 123.962 92.1097 123.411 92.4248L123.907 93.293L124.403 94.1613C124.636 94.0284 124.897 93.957 125.209 93.957V92.957ZM123.907 93.293L123.411 92.4248C122.844 92.7486 122.405 93.2169 122.09 93.7955L122.969 94.273L123.847 94.7506C124 94.4705 124.186 94.2855 124.403 94.1613L123.907 93.293ZM122.969 94.273L122.09 93.7955C121.764 94.3962 121.619 95.0703 121.619 95.785H122.619H123.619C123.619 95.3425 123.707 95.0085 123.847 94.7506L122.969 94.273ZM122.619 95.785H121.619C121.619 96.5068 121.763 97.1871 122.086 97.7947L122.969 97.325L123.852 96.8554C123.708 96.5857 123.619 96.2393 123.619 95.785H122.619ZM122.969 97.325L122.09 97.8026C122.403 98.3782 122.838 98.8465 123.395 99.1783L123.907 98.319L124.418 97.4598C124.192 97.3249 124.001 97.1306 123.847 96.8475L122.969 97.325ZM123.907 98.319L123.411 99.1873C123.962 99.5024 124.569 99.655 125.209 99.655V98.655V97.655C124.897 97.655 124.636 97.5837 124.403 97.4508L123.907 98.319ZM125.209 98.655V99.655C125.849 99.655 126.456 99.5024 127.007 99.1873L126.511 98.319L126.015 97.4508C125.782 97.5837 125.521 97.655 125.209 97.655V98.655ZM126.511 98.319L127.013 99.1836C127.582 98.8532 128.025 98.3841 128.341 97.8026L127.463 97.325L126.584 96.8475C126.434 97.1247 126.243 97.3182 126.008 97.4545L126.511 98.319ZM127.463 97.325L128.346 97.7947C128.668 97.1893 128.813 96.5144 128.813 95.799H127.813H126.813C126.813 96.241 126.725 96.5835 126.58 96.8554L127.463 97.325Z" fill="black" mask="url(#path-2-outside-1_164_6)"/>
</g>
<defs>
<filter id="filter0_d_164_6" x="0" y="0" width="151.983" height="226.322" filterUnits="userSpaceOnUse" color-interpolation-filters="sRGB">
<feFlood flood-opacity="0" result="BackgroundImageFix"/>
<feColorMatrix in="SourceAlpha" type="matrix" values="0 0 0 0 0 0 0 0 0 0 0 0 0 0 0 0 0 0 127 0" result="hardAlpha"/>
<feOffset dy="4"/>
<feGaussianBlur stdDeviation="2"/>
<feComposite in2="hardAlpha" operator="out"/>
<feColorMatrix type="matrix" values="0 0 0 0 0 0 0 0 0 0 0 0 0 0 0 0 0 0 0.25 0"/>
<feBlend mode="normal" in2="BackgroundImageFix" result="effect1_dropShadow_164_6"/>
<feBlend mode="normal" in="SourceGraphic" in2="effect1_dropShadow_164_6" result="shape"/>
</filter>
</defs>
</svg>
