<svg width="32" height="48" viewBox="0 0 32 48" fill="none" xmlns="http://www.w3.org/2000/svg">
<path d="M30.5332 -1.05287C30.8031 -1.33411 31.0149 -1.66574 31.1566 -2.02883C31.2982 -2.39193 31.367 -2.77937 31.359 -3.16904C31.3509 -3.55872 31.2662 -3.94299 31.1096 -4.29991C30.953 -4.65684 30.7277 -4.97943 30.4465 -5.24927C30.1652 -5.51911 29.8336 -5.73092 29.4705 -5.87259C29.1074 -6.01427 28.7199 -6.08304 28.3303 -6.07498C27.9406 -6.06692 27.5563 -5.98219 27.1994 -5.82562C26.8425 -5.66905 26.5199 -5.44372 26.25 -5.16248L0.826577 21.3499C0.301553 21.8968 0.0058063 22.624 4.35824e-05 23.3821C-0.00571914 24.1402 0.278939 24.8718 0.795588 25.4267L25.8131 52.3254C26.0768 52.6169 26.3958 52.8531 26.7516 53.0203C27.1074 53.1874 27.4928 53.2822 27.8855 53.2992C28.2782 53.3161 28.6704 53.2549 29.0393 53.1189C29.4081 52.983 29.7463 52.7752 30.0341 52.5075C30.322 52.2398 30.5538 51.9176 30.716 51.5595C30.8783 51.2015 30.9678 50.8148 30.9793 50.4219C30.9909 50.029 30.9242 49.6377 30.7833 49.2707C30.6423 48.9038 30.4299 48.5685 30.1582 48.2843L7.04796 23.4357L30.5332 -1.05287Z" fill="#EBE4E5"/>
</svg>
