<svg width="32" height="47" viewBox="0 0 32 47" fill="none" xmlns="http://www.w3.org/2000/svg">
<path d="M0.823828 48.0827C0.554348 48.3643 0.34297 48.6962 0.201762 49.0595C0.0605544 49.4228 -0.0077215 49.8103 0.000837738 50.2C0.00939697 50.5896 0.094624 50.9738 0.251649 51.3305C0.408675 51.6872 0.634423 52.0095 0.916008 52.279C1.19759 52.5485 1.5295 52.7599 1.89278 52.9011C2.25605 53.0423 2.64358 53.1106 3.03325 53.102C3.42291 53.0935 3.80707 53.0082 4.16379 52.8512C4.52052 52.6942 4.84282 52.4684 5.1123 52.1868L30.5017 25.6419C31.026 25.0943 31.3208 24.3667 31.3256 23.6086C31.3304 22.8505 31.0448 22.1192 30.5275 21.565L5.47548 -5.30154C5.21138 -5.5927 4.89207 -5.82848 4.53608 -5.99519C4.18009 -6.1619 3.79453 -6.25621 3.40178 -6.27265C3.00904 -6.28909 2.61694 -6.22732 2.24826 -6.09094C1.87959 -5.95457 1.54169 -5.7463 1.25419 -5.47823C0.966685 -5.21016 0.735313 -4.88763 0.573512 -4.52939C0.411711 -4.17115 0.322705 -3.78432 0.311664 -3.39139C0.300623 -2.99845 0.367765 -2.60724 0.509195 -2.24048C0.650622 -1.87371 0.863518 -1.5387 1.13551 -1.25491L24.2777 23.5641L0.823828 48.0827Z" fill="#EBE4E5"/>
</svg>
