<svg width="46" height="46" viewBox="0 0 46 46" fill="none" xmlns="http://www.w3.org/2000/svg">
<path d="M40.172 40.1328L31.7436 31.7233M31.7436 31.7233C33.1853 30.2849 34.3289 28.5771 35.1092 26.6977C35.8894 24.8182 36.291 22.8039 36.291 20.7695C36.291 18.7352 35.8894 16.7209 35.1092 14.8414C34.3289 12.962 33.1853 11.2542 31.7436 9.81577C30.3019 8.3773 28.5903 7.23624 26.7066 6.45775C24.823 5.67925 22.804 5.27856 20.7651 5.27856C18.7263 5.27856 16.7073 5.67925 14.8236 6.45775C12.94 7.23624 11.2284 8.3773 9.78668 9.81577C6.87502 12.7209 5.23926 16.6611 5.23926 20.7695C5.23926 24.878 6.87502 28.8182 9.78668 31.7233C12.6984 34.6284 16.6474 36.2605 20.7651 36.2605C24.8829 36.2605 28.8319 34.6284 31.7436 31.7233Z" stroke="#AAB3C0" stroke-width="1.25" stroke-linecap="round" stroke-linejoin="round"/>
</svg>
