<svg width="37" height="37" viewBox="0 0 37 37" fill="none" xmlns="http://www.w3.org/2000/svg">
<path d="M35.5577 35.4792L27.1293 27.0698M27.1293 27.0698C28.5711 25.6313 29.7147 23.9236 30.4949 22.0441C31.2752 20.1647 31.6768 18.1503 31.6768 16.116C31.6768 14.0817 31.2752 12.0673 30.4949 10.1878C29.7147 8.30839 28.5711 6.60067 27.1293 5.1622C25.6876 3.72373 23.9761 2.58268 22.0924 1.80418C20.2087 1.02569 18.1898 0.625 16.1509 0.625C14.112 0.625 12.0931 1.02569 10.2094 1.80418C8.3257 2.58268 6.61414 3.72373 5.17243 5.1622C2.26076 8.06733 0.625 12.0075 0.625 16.116C0.625 20.2244 2.26076 24.1646 5.17243 27.0698C8.08409 29.9749 12.0332 31.607 16.1509 31.607C20.2686 31.607 24.2177 29.9749 27.1293 27.0698Z" stroke="#AAB3C0" stroke-width="1.25" stroke-linecap="round" stroke-linejoin="round"/>
</svg>
