<svg width="15" height="15" viewBox="0 0 15 15" fill="none" xmlns="http://www.w3.org/2000/svg">
<path d="M14.1 14.775C14.4833 15.1583 15.075 14.5667 14.6917 14.1917L11.5667 11.0583C12.6631 9.8456 13.2691 8.26825 13.2667 6.63333C13.2667 2.975 10.2917 0 6.63333 0C2.975 0 0 2.975 0 6.63333C0 10.2917 2.975 13.2667 6.63333 13.2667C8.28333 13.2667 9.80833 12.6583 10.975 11.65L14.1 14.775ZM0.8325 6.63333C0.8325 3.43333 3.44083 0.833333 6.6325 0.833333C9.8325 0.833333 12.4325 3.43333 12.4325 6.63333C12.4325 9.83333 9.8325 12.4333 6.6325 12.4333C3.44083 12.4333 0.8325 9.83333 0.8325 6.63333Z" fill="#AAB3C0"/>
</svg>
